<?xml version="1.0" standalone="no"?>
  <!DOCTYPE svg PUBLIC "-//W3C//DTD SVG 1.1//EN" "http://www.w3.org/Graphics/SVG/1.1/DTD/svg11.dtd" >
  <svg>
  <metadata>
  Created by font-carrier
  </metadata>
  <defs>
  <font id="ShlapakScript" horiz-adv-x="2731" vert-adv-y="2731" >
    <font-face
      
      font-family="Shlapak Script"
      
      font-weight="400"
      
      font-stretch="normal"
      
      units-per-em="2048"
      
      ascent="1716"
      
      descent="-418"
      
    />
      <missing-glyph />

      

      
      <glyph glyph-name="uni21" unicode="&#x21;" d="M348 1577L403 1577Q275 1123 165 348L128 348Q220 984 348 1577M55 92L110 92L110 55Q110 13 18 0L0 37Q0 63 55 92Z"  horiz-adv-x="342" vert-adv-y="2048"  />

      
      <glyph glyph-name="uni22" unicode="&#x22;" d="M173 1560L227 1560Q227 1505 255 1505L227 1451L227 1314Q337 1368 337 1478L419 1478Q392 1334 392 1314L419 1149L364 1122Q337 1167 337 1259L282 1259Q282 1149 200 1149Q145 1149 145 1204Q173 1437 173 1560Z"  horiz-adv-x="513" vert-adv-y="2048"  />

      
      <glyph glyph-name="uni23" unicode="&#x23;" d="M708 1061L742 1061L742 1044Q742 994 624 742L658 742Q681 743 927 1061L943 1061L943 1044Q943 994 843 776Q859 776 859 759L977 776L1027 776L1027 742Q809 730 809 675L809 624L960 624L960 591Q742 591 742 440Q679 171 624 171Q624 188 608 188Q692 349 725 557L708 557Q545 557 473 339L423 305L423 339Q423 389 473 473L456 473Q381 440 272 423Q239 440 221 440L221 473Q540 525 540 624L540 658Q439 658 188 574L171 608Q171 641 574 708Q574 717 708 1061M742 759L776 742Q826 816 826 859Q801 859 742 759M624 591L658 591Q745 591 759 641L759 708L742 708Q688 708 624 591Z"  horiz-adv-x="989" vert-adv-y="2048"  />

      
      <glyph glyph-name="uni24" unicode="&#x24;" d="M624 1693Q665 1643 665 1611Q624 1479 624 1428L624 1387Q744 1387 910 1632L930 1632Q971 1632 971 1571Q971 1535 930 1448Q1016 1448 1032 1285L910 1407L869 1407Q774 1407 604 815Q930 802 930 713L930 693Q930 518 461 244Q420-19 420-103Q379-103 379-62L379 81L400 203L400 224L379 224Q318-48 318-225L359-225Q334-409 298-409Q277-307 257-307L277-266L277-225Q277-93 298 183L-29 20L-90 20L-90 81Q339 222 339 326L420 754Q134 804 134 958L134 979Q134 1149 563 1366Q577 1693 624 1693M502 815L543 815Q543 934 747 1366L726 1366Q580 1366 543 1060Q543 1022 502 815M175 979Q223 815 441 815Q441 839 543 1285Q175 1100 175 979M461 326Q680 413 869 652L869 713Q728 754 624 754L604 754Q545 754 461 326M481 734Q481 688 461 652L461 632L481 632Q481 653 502 693L502 734L481 734M441 611Q441 543 420 509L420 489L441 489L461 571L461 611L441 611M400 428Q400 336 379 305L400 305L420 346L420 428L400 428Z"  horiz-adv-x="1014" vert-adv-y="2048"  />

      
      <glyph glyph-name="uni25" unicode="&#x25;" d="M592 653L607 653L607 609Q106-8 106-83L106-98L77-98Q77 5 298 270L592 653M253 594Q356 594 356 491Q356 391 150 285Q150 255 121 255L47 255Q3 270 3 344Q3 504 253 594M77 373Q91 345 91 329L121 329Q312 377 312 476L327 476Q298 543 268 550Q129 550 77 373M32 344Q55 285 77 285L91 285Q91 308 32 344M459 285L474 285Q623 226 651 138Q651 20 445-10L430-10Q342-10 342 79Q342 147 459 285M371 79Q393 20 415 20L430 20Q572 20 607 123Q607 211 504 211Q427 211 371 79Z"  horiz-adv-x="905" vert-adv-y="2048"  />

      
      <glyph glyph-name="uni26" unicode="&#x26;" d="M356 1052L372 1052Q484 950 484 797Q484 757 436 605Q484 605 484 573L468 493Q755-139 755-177Q698-137 468 382L452 382Q452 15 212 15Q-11 62-11 174Q-11 310 372 637Q340 757 340 860L340 972L356 1052M372 940L372 908Q372 805 404 685Q452 695 452 813Q404 963 404 972Q372 967 372 940M372 589Q37 304 37 190Q37 92 181 62Q420 62 420 445L420 493Q404 589 372 589Z"  horiz-adv-x="696" vert-adv-y="2048"  />

      
      <glyph glyph-name="uni27" unicode="&#x27;" d="M225 1520L245 1520L245 1500Q155 1285 127 1285L127 1324Q127 1422 225 1520Z"  horiz-adv-x="346" vert-adv-y="2048"  />

      
      <glyph glyph-name="uni28" unicode="&#x28;" d="M540 1351L579 1351Q618 1345 618 1312Q396 1312 77 483Q39 297 39 212Q39 165 77 0Q24 0 0 193L0 212Q0 808 540 1351Z"  horiz-adv-x="438" vert-adv-y="2048"  />

      
      <glyph glyph-name="uni29" unicode="&#x29;" d="M361 1537L361 1499Q361 759 19 0L0 0L0 38Q304 790 304 1404Q329 1537 361 1537Z"  horiz-adv-x="449" vert-adv-y="2048"  />

      
      <glyph glyph-name="uni2a" unicode="&#x2a;" d="M299 1687L328 1687Q384 1687 384 1546L693 1546L693 1490Q412 1490 412 1209L384 1209Q215 1265 215 1321Q215 1362 103 1434L103 1462Q112 1518 159 1518Q208 1490 271 1490Q271 1575 299 1687Z"  horiz-adv-x="655" vert-adv-y="2048"  />

      
      <glyph glyph-name="uni2b" unicode="&#x2b;" d="M560 528Q590 513 607 513L607 482Q483 482 483 389Q677 373 715 373L715 343L483 343Q452 338 452 312L452 157L421 157Q421 227 406 250Q421 277 421 312L406 343Q342 312 313 312L313 358Q417 358 499 513L560 528Z"  horiz-adv-x="458" vert-adv-y="2048"  />

      
      <glyph glyph-name="uni2c" unicode="&#x2c;" d="M198 49L219 49L219 28Q121-209 90-209L90-166Q90-58 198 49Z"  horiz-adv-x="287" vert-adv-y="2048"  />

      
      <glyph glyph-name="uni2d" unicode="&#x2d;" d="M995 430Q995 371 285 226Q254 249 214 249L108 249L90 294L125 317Q283 294 321 294Q957 430 995 430Z"  horiz-adv-x="1084" vert-adv-y="2048"  />

      
      <glyph glyph-name="uniad" unicode="&#xad;" d="M995 430Q995 371 285 226Q254 249 214 249L108 249L90 294L125 317Q283 294 321 294Q957 430 995 430Z"  horiz-adv-x="1084" vert-adv-y="2048"  />

      
      <glyph glyph-name="uni2e" unicode="&#x2e;" d="M76 50Q146 24 146-2Q146-16 93-55Q23-29 23-2Q23 11 76 50Z"  horiz-adv-x="171" vert-adv-y="2048"  />

      
      <glyph glyph-name="uni2f" unicode="&#x2f;" d="M704 893L721 893Q111 273 34 17Q34 0 17 0L0 0Q27 228 670 876L704 893Z"  horiz-adv-x="641" vert-adv-y="2048"  />

      
      <glyph glyph-name="uni30" unicode="&#x30;" d="M352 612Q482 590 482 445L482 371Q365 0 167 0L111 0Q0 64 0 185Q56 456 185 593Q221 575 241 575Q302 612 352 612M56 111Q56 82 130 37L148 37Q341 37 445 427Q420 556 371 556L278 556Q122 556 56 241L56 111Z"  horiz-adv-x="484" vert-adv-y="2048"  />

      
      <glyph glyph-name="uni31" unicode="&#x31;" d="M420 687Q420 641 267 363Q229 278 210 76Q229 39 229 19L191 0Q172 37 172 57Q172 121 210 363Q45 191 0 191L0 210Q288 498 382 687L420 687Z"  horiz-adv-x="386" vert-adv-y="2048"  />

      
      <glyph glyph-name="uni32" unicode="&#x32;" d="M60 577L122 577Q267 485 267 370L267 329Q267 252 184 60L205 60Q555 102 618 102Q658 81 680 81L680 60Q422 60 19-43L-2-2L-2 19Q170 19 225 350Q193 536 60 536L60 577Z"  horiz-adv-x="606" vert-adv-y="2048"  />

      
      <glyph glyph-name="uni33" unicode="&#x33;" d="M125 658L151 658Q509 658 509 479Q407 331 407 299L432 197Q204-136-3-136L-3-85Q177-52 356 171L356 248L228 274L432 453L432 504Q432 541 356 581L74 581L74 607Q82 658 125 658Z"  horiz-adv-x="536" vert-adv-y="2048"  />

      
      <glyph glyph-name="uni34" unicode="&#x34;" d="M102 670L122 670Q162 664 162 629L162 609Q102 531 41 386L81 365L102 365Q344 568 386 568L386 548Q122 255 122 244Q61 137 61 0Q20 0 20 41L102 325L61 305Q32 305 0 365Q102 628 102 670Z"  horiz-adv-x="394" vert-adv-y="2048"  />

      
      <glyph glyph-name="uni35" unicode="&#x35;" d="M646 797Q646 761 323 689Q172 590 172 560Q208 539 280 539L86 366Q86 308 388 280L388 194Q241 0 43 0L0 65L0 129L22 129Q54 129 86 43Q321 136 345 215Q345 264 86 280Q43 333 43 366Q43 386 129 495L108 603Q384 797 646 797Z"  horiz-adv-x="461" vert-adv-y="2048"  />

      
      <glyph glyph-name="uni36" unicode="&#x36;" d="M536 722L582 652Q234 652 70 210L70 116Q70 83 140 47L163 47Q373 93 373 163Q373 197 303 233L186 233L186 303L279 303Q419 303 419 163Q419 38 140 0Q41 0 0 210Q0 420 489 722L536 722Z"  horiz-adv-x="539" vert-adv-y="2048"  />

      
      <glyph glyph-name="uni37" unicode="&#x37;" d="M513 684L513 663L235 342Q235 293 171 192Q131 0 86 0L64 0Q64 13 86 278Q0 310 0 342L0 385L43 385L128 321L150 321Q169 321 406 620L342 620Q238 620 128 556L128 577Q128 655 513 684Z"  horiz-adv-x="481" vert-adv-y="2048"  />

      
      <glyph glyph-name="uni38" unicode="&#x38;" d="M119 618L159 618Q298 618 298 499L258 340L278 241Q210-37 40-37Q0-37 0 3L0 62Q199 339 199 420Q166 420 119 558Q139 558 139 578L119 578Q3 578-119 439L-119 479Q-119 552 119 618M159 578Q206 439 238 439L258 439L258 539Q258 578 218 578L159 578M60 23L99 23Q238 102 238 300L218 300Q60 149 60 23Z"  horiz-adv-x="368" vert-adv-y="2048"  />

      
      <glyph glyph-name="uni39" unicode="&#x39;" d="M226 563Q363 478 363 449L363 404Q260 125-206-461L-229-461L181 153L181 199Q44 199 44 313Q84 465 226 563M181 472Q112 389 112 313L112 267L181 267Q226 267 226 335Q181 409 181 449Q203 449 203 472L181 472M272 426L272 335L317 335L317 426L272 426Z"  horiz-adv-x="400" vert-adv-y="2048"  />

      
      <glyph glyph-name="uni3a" unicode="&#x3a;" d="M99 591L138 591Q177 585 177 552L177 473L138 473Q99 473 99 512L99 591M0 99L39 99Q68 99 99 39L99 0L59 0Q31 0 0 59L0 99Z"  horiz-adv-x="217" vert-adv-y="2048"  />

      
      <glyph glyph-name="uni3b" unicode="&#x3b;" d="M187 572L205 572Q232 572 260 517Q233 444 205 444Q169 489 169 517Q187 553 187 572M132 97L151 97L23-214L-14-214Q77 97 132 97Z"  horiz-adv-x="307" vert-adv-y="2048"  />

      
      <glyph glyph-name="uni037E" unicode="&#x037E;" d="M187 572L205 572Q232 572 260 517Q233 444 205 444Q169 489 169 517Q187 553 187 572M132 97L151 97L23-214L-14-214Q77 97 132 97Z"  horiz-adv-x="307" vert-adv-y="2048"  />

      
      <glyph glyph-name="uni3c" unicode="&#x3c;" d="M846 705L867 705L867 684Q632 437 228 293L228 272Q228 229 496 169Q496 128 558 128L558 87Q274 179 146 252Q125 252 125 272Q125 300 681 561L846 705Z"  horiz-adv-x="1014" vert-adv-y="2048"  />

      
      <glyph glyph-name="uni3d" unicode="&#x3d;" d="M190 433Q465 433 864 388L842 343L729 366L302 366L190 388L190 433M639 321Q718 298 864 298Q864 253 819 253L437 253Q392 253 392 186L370 186L145 208L145 253Q152 298 190 298L347 298Q492 298 639 321Z"  horiz-adv-x="1014" vert-adv-y="2048"  />

      
      <glyph glyph-name="uni3e" unicode="&#x3e;" d="M208 577L259 577Q259 499 724 474Q724 457 758 457Q758 333 363 181L173 61L139 61Q217 150 707 405L707 439Q208 464 208 560L208 577Z"  horiz-adv-x="1014" vert-adv-y="2048"  />

      
      <glyph glyph-name="uni3f" unicode="&#x3f;" d="M585 1308Q661 1280 661 1251Q661 1087 206 569Q187 536 187 493L187 474L206 379Q167 387 130 474Q130 582 376 834Q607 1127 623 1232L585 1251L566 1251Q92 1137 92 967L73 967Q35 967 35 1005L35 1024Q35 1137 585 1308M130 95Q168 89 168 57L168 0L130 0Q92 0 92 38L92 57Q98 95 130 95Z"  horiz-adv-x="568" vert-adv-y="2048"  />

      
      <glyph glyph-name="uni40" unicode="&#x40;" d="M507 722L528 722Q575 722 612 701Q648 722 695 722Q1113 653 1113 367Q997-93 862-93Q862-139 695-176Q528-176 528 158Q346-30 256-30Q131 13 131 137Q131 219 215 450L194 450Q-182 246-182 33Q-89-343 152-343L194-343Q714-343 1510 116Q1215-210 340-385Q324-385 215-406Q-97-406-224-30L-224 12Q-224 321 486 701Q486 722 507 722M632 618Q632 597 653 597L632 492L632 471Q632 424 653 388Q570 187 570 54Q570-55 674-114L716-114Q946-114 1050 346Q1050 637 674 680Q632 680 632 618M444 492L403 513L361 450L361 409Q374 283 424 283Q612 283 612 597L570 618L549 618Q444 618 444 513L444 492M277 430Q194 286 194 179L194 95Q194 65 256 33L319 33Q350 33 465 179L465 221Q340 221 298 430L277 430Z"  horiz-adv-x="1728" vert-adv-y="2048"  />

      
      <glyph glyph-name="uni41" unicode="&#x41;" d="M829 1450Q872 1428 895 1428Q740 941 740 587L762 587Q1013 720 1117 720L1139 720L1139 698Q718 554 718 432L740 321L740 144Q740 25 807-210L762-232Q696-232 563 122Q460 233 231 233L209 233Q172 34 121 34L98 78Q121 104 121 211Q-23 166-79 166L-101 166Q-145 166-145 211Q232 211 364 631Q829 1416 829 1450M762 1229Q420 660 298 366Q674 520 674 587Q718 985 785 1207L785 1229L762 1229M298 277Q515 277 696 34Q674 255 674 366L674 476L652 476Q298 330 298 277Z"  horiz-adv-x="1168" vert-adv-y="2048"  />

      
      <glyph glyph-name="uni42" unicode="&#x42;" d="M819 1374Q1111 1374 1111 1187Q1081 1056 695 792L840 792Q861 792 861 812Q1048 783 1048 729Q337-122 8-186L8-165L258 1Q216 69 216 126Q216 326 258 584L195 584L195 646Q279 646 279 688Q279 772 320 937L279 916L279 937Q347 1187 383 1187L403 1145L403 1083Q320 721 320 688Q578 720 1007 1104Q1054 1208 1069 1208Q1069 1270 882 1332Q861 1332 861 1312L757 1332L653 1312L653 1332Q59 1286-512 937L-616 812Q-595 772-595 750L-657 750Q-699 750-699 792L-699 833Q-62 1374 819 1374M258 126Q289 43 320 43Q728 382 986 750L882 750Q299 715 299 542Q258 263 258 126Z"  horiz-adv-x="1219" vert-adv-y="2048"  />

      
      <glyph glyph-name="uni43" unicode="&#x43;" d="M853 1444Q944 1414 985 1335Q957 1225 919 1225Q919 1378 788 1378Q564 1356 219 853Q66 604 66 459L66 328Q66 44 328 44Q571 44 1028 175L1028 131Q618 0 416 0L284 0Q60 0 0 372Q0 827 613 1356Q771 1444 853 1444Z"  horiz-adv-x="1003" vert-adv-y="2048"  />

      
      <glyph glyph-name="uni44" unicode="&#x44;" d="M777 1401L840 1401Q1390 1401 1494 1043L1494 1000Q1494 401 229 9Q187 9 187-75L144-75Q144-22 102 30L102 52L144 52L144 305L166 410L144 410Q234 1232 313 1232Q355 1226 355 1190L355 1106Q230 1106 187 52L208 52Q972 249 1325 684Q1452 887 1452 979Q1452 1239 1051 1338Q907 1359 819 1359Q357 1359-319 1000Q-319 986-425 916L-467 937Q-405 1070 376 1338Q629 1401 777 1401Z"  horiz-adv-x="1592" vert-adv-y="2048"  />

      
      <glyph glyph-name="uni45" unicode="&#x45;" d="M1046 1543Q1084 1543 1125 1465Q1125 1427 1046 1386Q1046 1465 915 1465Q340 1229 340 968L340 889Q340 852 418 811L628 811L680 837L706 785Q706 745 340 549Q78 346 78 183L78 131Q78 93 157 52L235 52L1203 314Q1203 262 366 26Q366 0 209 0L131 0Q0 52 0 183Q0 384 497 732Q262 766 262 968Q262 1255 968 1543L1046 1543Z"  horiz-adv-x="1151" vert-adv-y="2048"  />

      
      <glyph glyph-name="uni46" unicode="&#x46;" d="M1562 1670L1633 1670L1633 1646Q1633 1599 1514 1599L1514 1623Q567 1364 567 1196Q567 1064 449 794L473 794Q1197 1054 1467 1054L1467 1007L1443 1007Q354 848 354 462Q307 359 283 83Q283 12 378 12L378-35L307-35Q248-35 236 60Q236 304 354 652L330 652Q106 486 94 486L70 533Q70 570 378 746Q473 969 520 1196Q496 1242 496 1267Q-285 1021-285 889L-333 889Q-380 889-380 936L-380 960Q-243 1068 473 1315L473 1362L496 1362Q520 1362 520 1338Q1214 1599 1562 1670Z"  horiz-adv-x="841" vert-adv-y="2048"  />

      
      <glyph glyph-name="uni47" unicode="&#x47;" d="M854 1487Q887 1486 1023 1337Q1005 1300 1005 1280Q970 1280 873 1412L835 1431Q679 1431 478 1168Q65 764 65 491Q65 186 441 153L554 153Q948 247 948 359Q903 472 835 472Q724 472 478 435L460 472L460 491Q711 566 817 566Q964 566 1023 453Q1023-61 403-524Q403-544 102-787L84-787Q84-752 629-280Q948 89 948 247L948 265L929 265Q713 96 478 96Q27 96 27 529Q27 806 610 1374Q717 1487 854 1487Z"  horiz-adv-x="1131" vert-adv-y="2048"  />

      
      <glyph glyph-name="uni48" unicode="&#x48;" d="M580 1516L646 1516L646 1494L314 411Q814 877 977 1207L1044 1207Q823 906 602-31L602-119L557-119Q557 160 801 831L801 853L778 853Q778 794 226 235Q182 14 138 14Q-17 122-17 257Q244 257 292 500Q447 990 580 1516M93 146L160 146L160 190L138 190Q93 183 93 146Z"  horiz-adv-x="881" vert-adv-y="2048"  />

      
      <glyph glyph-name="uni49" unicode="&#x49;" d="M710 1438L710 1419Q467 863 467 822Q371 131 261 131Q200 40 75 0Q0 28 0 56L0 75Q0 176 93 224L112 224Q75 91 75 75L75 56Q350 56 430 859L635 1345L616 1345Q472 1271 448 1251L392 1251Q355 1251 355 1289Q361 1326 392 1326Q428 1307 448 1307Q686 1438 710 1438Z"  horiz-adv-x="542" vert-adv-y="2048"  />

      
      <glyph glyph-name="uni4a" unicode="&#x4a;" d="M698 1540L717 1540L238 123L257 123L563 372L583 372Q180 0 180-50Q-10-745-317-1045Q-398-1122-471-1122Q-528-1122-547-969Q-509-667-88-222Q238 85 238 257Q621 1322 621 1463Q478 1368 410 1368L391 1463Q391 1491 449 1521Q449 1502 468 1502L449 1463L449 1425L468 1425Q630 1540 698 1540M-471-969Q-452-1002-452-1045L-432-1045Q-145-905 85-222Q123-78 123-69Q-471-608-471-969Z"  horiz-adv-x="568" vert-adv-y="2048"  />

      
      <glyph glyph-name="uni4b" unicode="&#x4b;" d="M446 1577L469 1577Q517 1570 517 1530Q517 1485 185 533Q232 533 232 438L256 438Q743 1001 1158 1316L1181 1316L1181 1292Q430 616 303 390Q407 252 920 153L920 129L873 129Q580 129 280 319L232 319Q50-98-5-108L-29-108Q-29 66 398 1340Q427 1378 446 1577M161 438Q113 316 113 248L113 224L137 224Q208 370 208 414L161 438Z"  horiz-adv-x="899" vert-adv-y="2048"  />

      
      <glyph glyph-name="uni4c" unicode="&#x4c;" d="M690 1455L771 1455L771 1428Q771 1139 74-46L100-46Q883 249 1199 249L1360 249Q1360 195 1307 195L1226 195Q836 195 127-126Q127-180-60-180Q-114-180-114-126L-114-46Q100-46 100 142Q690 1121 690 1348L690 1455Z"  horiz-adv-x="1580" vert-adv-y="2048"  />

      
      <glyph glyph-name="uni4d" unicode="&#x4d;" d="M1484 1458L1509 1458L1509 1432Q1509 1325 1125 102Q1100 58 1100 0Q1049 0 1049 51Q1049 107 1432 1305L998 844L921 844Q857 844 844 946Q844 1058 895 1177L870 1177Q574 797 153 77L51 0Q0 0 0 51Q123 174 793 1177Q946 1317 946 1407L1023 1407Q921 1109 921 946L921 921L972 921L1484 1458Z"  horiz-adv-x="1331" vert-adv-y="2048"  />

      
      <glyph glyph-name="uni4e" unicode="&#x4e;" d="M1643 1586L1643 1561Q1062 913 910 397Q701-7 657-7Q606-7 606 68Q606 264 834 1030L809 1030Q489 500-1-58L-26-58L-26-33Q526 646 935 1333L986 1308Q834 955 682 170Q817 346 1062 878Q1264 1227 1643 1586Z"  horiz-adv-x="1000" vert-adv-y="2048"  />

      
      <glyph glyph-name="uni4f" unicode="&#x4f;" d="M911 1432L1085 1432Q1258 1345 1258 1172Q1258 750 694 130Q521 0 304 0Q42 0 0 412L0 434Q100 1063 217 1063Q253 1171 673 1389Q698 1389 911 1432M477 1237L499 1193Q323 1193 130 716L130 608Q43 608 43 391Q43 104 347 43Q810 43 1193 1041L1193 1128Q1193 1389 976 1389L890 1389Q708 1350 477 1237Z"  horiz-adv-x="1044" vert-adv-y="2048"  />

      
      <glyph glyph-name="uni50" unicode="&#x50;" d="M1220 1531Q1487 1509 1487 1376Q1424 1183 910 821Q399 606 399 533Q311 198 311 89Q333 46 333 22L288 0L266 0L266 89Q266 313 355 533L244 533L244 555Q401 555 488 1043Q503 1043 599 1353Q89 1161 89 1043L22 1043L0 1154Q830 1531 1220 1531M444 666L466 666Q1296 1042 1420 1376Q1420 1470 1176 1487Q599 1434 599 1198Q444 721 444 666Z"  horiz-adv-x="687" vert-adv-y="2048"  />

      
      <glyph glyph-name="uni51" unicode="&#x51;" d="M882 1458Q1098 1458 1157 1124L1138 1084L1157 1045Q1138 1045 1138 1025L1157 1025Q1120 619 724 199Q646 170 646 140L744 140Q847 140 921 199Q941 161 941 140Q901 76 901 22L901-96Q1387 160 1472 160Q1459 127 941-135Q848-401 783-411Q665-430 665-450L547-391Q547-310 842-155L842 61L862 101L508 61L508 81Q436 42 351 42L311 42Q60 42-3 455Q-23 455-23 553Q-23 769 390 1242Q426 1242 783 1438L882 1458M528 1242L547 1143Q547 1071 449 848L449 829L410 829Q508 1052 508 1183Q264 1183 95 593Q75 567 75 455L75 356Q81 317 115 317L95 278Q171 81 331 81Q632 81 961 593Q1098 847 1098 1104Q1098 1399 823 1399Q594 1301 528 1242M665-371L685-371Q792-371 842-273L842-214L823-214Q764-214 665-371Z"  horiz-adv-x="1331" vert-adv-y="2048"  />

      
      <glyph glyph-name="uni52" unicode="&#x52;" d="M998 1507Q1183 1480 1183 1396Q863 1012 371 805Q260 762 260 547Q538 423 943-26L943-44Q347 491 260 491L241 455L241 251Q241 48 297 48Q278 13 278-7L260-7Q197-7 186 344Q204 470 204 547Q143 547 20 695Q26 732 57 732L167 713L167 695L131 639Q155 621 223 621Q315 1115 334 1322L352 1322L389 1304Q352 1050 297 824L334 824Q1048 1212 1128 1378L1128 1433L998 1452L980 1452Q400 1452-276 1064Q-303 990-331 990Q-368 990-368 1027L-368 1064Q-46 1285 518 1433Q780 1489 998 1507Z"  horiz-adv-x="1003" vert-adv-y="2048"  />

      
      <glyph glyph-name="uni53" unicode="&#x53;" d="M825 1447L953 1447L953 1383L910 1383Q642 1383 81 916L81 852Q81 805 634 724Q834 639 889 533L889 512Q835 211-152-296L-195-296Q-185-249 400 65Q822 389 847 490Q847 653 273 746L273 724Q18 767 18 831Q18 1042 825 1447Z"  horiz-adv-x="1024" vert-adv-y="2048"  />

      
      <glyph glyph-name="uni54" unicode="&#x54;" d="M1988 2044L1988 2006Q1660 2006 574 1643Q-453 1200-554 936Q-554 827-76 687Q291 484 325 305L364 305L344 343L344 1031Q344 1131 325 1356L364 1375L383 1337L383 744Q383 432 440-1L402-20Q353 44 268 343Q175 568-477 783Q-592 830-592 955L-592 1012Q-203 1374 688 1719Q1057 1872 1988 2044Z"  horiz-adv-x="707" vert-adv-y="2048"  />

      
      <glyph glyph-name="uni55" unicode="&#x55;" d="M952 1505L991 1505Q1029 1505 1029 1447Q702 740 702 697L645 274Q645 248 683 62L645 62Q606 215 606 293Q625 541 683 736L664 736Q277 10 125-130L106-130Q29-99 29 5L29 101Q29 362 394 1370L183 1178L164 1178Q164 1216 414 1467L414 1486L471 1486Q433 1320 125 466Q67 187 67 82L67 24L87-72L144-72Q144-22 471 466Q760 962 952 1505Z"  horiz-adv-x="858" vert-adv-y="2048"  />

      
      <glyph glyph-name="uni56" unicode="&#x56;" d="M960 1725L960 1689Q311 835 142 0L107 0L71 18Q53 469 53 676L53 907Q53 925 36 925Q36 943 53 943Q32 1184 0 1369L36 1387L71 1369L107 196L107 178L124 178Q382 1045 960 1725Z"  horiz-adv-x="490" vert-adv-y="2048"  />

      
      <glyph glyph-name="uni57" unicode="&#x57;" d="M1377 1502L1416 1502Q1348 1311 835 592Q365-120 331-125L292-125Q292-95 253-48L253 146L157 69L98 69Q21 100 21 204Q21 423 292 1386L292 1405L350 1405Q79 520 79 204L79 127Q100 127 137 107Q283 288 350 437L389 437L389 398Q312 186 312 166L312-48Q438 51 1183 1211Q1233 1211 1377 1502Z"  horiz-adv-x="806" vert-adv-y="2048"  />

      
      <glyph glyph-name="uni58" unicode="&#x58;" d="M1287 1527L1393 1527L1393 1506Q977 1153 563 591Q691 66 712 38Q662-111 627-111L585-111Q648-21 648 59Q542 527 500 527Q412 397 32-47L32-68L-11-68L-11-47Q-10-8 351 400Q440 500 500 591Q436 1166 436 1293L414 1293Q414 1229 372 1229L372 1314Q372 1334 414 1484L436 1484Q478 1478 478 1442L478 1421Q478 1170 542 676L563 676L1287 1506L1287 1527Z"  horiz-adv-x="873" vert-adv-y="2048"  />

      
      <glyph glyph-name="uni59" unicode="&#x59;" d="M136 1505L164 1450Q55 1094 55 878Q109 869 109 823Q340 920 736 1505L764 1505L764 1478Q600 1058 191-377Q136-377 136-322Q382 365 546 1123Q228 769 82 769Q0 796 0 932L0 959Q49 1505 136 1505Z"  horiz-adv-x="580" vert-adv-y="2048"  />

      
      <glyph glyph-name="uni5a" unicode="&#x5a;" d="M1180 1490L1223 1426Q1223 1356 794 912L816 912L1158 997L1158 955Q580 821 580 719Q130 291 130 98L130 55L923 398Q1094 441 1287 441L1330 441Q1372 434 1372 398L1308 398Q881 398 152-9L130-9Q98-9 66 77Q66 260 559 783L537 783Q44 633-62 484L-84 484Q-115 484-148 548Q-148 612 130 676Q574 839 709 912Q1158 1338 1158 1426Q1117 1447 1094 1447Q782 1447 66 1190L66 1254Q773 1490 1180 1490Z"  horiz-adv-x="1232" vert-adv-y="2048"  />

      
      <glyph glyph-name="uni5b" unicode="&#x5b;" d="M389 1656L440 1656Q534 1579 620 1579L825 1579Q883 1579 928 1605Q1134 1564 1134 1502L1134 1451Q949 1502 466 1554Q312 943 260 424Q296-90 363-90L389-90Q580-90 1005 13L1031-39L414-167Q367-167 209-116L235 64L235 167Q235 225 209 270Q209 295 235 295L209 475Q209 590 389 1631L389 1656Z"  horiz-adv-x="758" vert-adv-y="2048"  />

      
      <glyph glyph-name="uni5c" unicode="&#x5c;" d="M-70 1058L-3 1058Q48 695 397 208Q614 0 614-9L597-9Q239 233 47 725L-70 1058Z"  horiz-adv-x="569" vert-adv-y="2048"  />

      
      <glyph glyph-name="uni5d" unicode="&#x5d;" d="M631 1618L658 1565Q525 1055 525 370Q525 114 658-108L658-135Q658-188 578-188Q518-135 100-82L-484-188Q-418-55 180-29L525-29L525-2L446 449Q446 493 552 1485L552 1538Q-52 1432-165 1432Q-272 1472-272 1512L-245 1565L-86 1485Q578 1618 631 1618Z"  horiz-adv-x="758" vert-adv-y="2048"  />

      
      <glyph glyph-name="uni5e" unicode="&#x5e;" d="M627 1859Q669 1859 741 1518Q778 1518 912 1290L912 1261Q681 1401 599 1717L143 1233L58 1233L58 1290Q337 1485 627 1859Z"  horiz-adv-x="1014" vert-adv-y="2048"  />

      
      <glyph glyph-name="uni5f" unicode="&#x5f;" d="M1138 66Q1379 66 1473-101L1473-149Q1324 18 1091 18L-80-53L-104-6L-80 42L39 18L87 18Q289 18 1138 66Z"  horiz-adv-x="1467" vert-adv-y="2048"  />

      
      <glyph glyph-name="uni60" unicode="&#x60;" d="M-35 1557L-12 1557Q439 1137 439 925Q402 925 191 1309Q-35 1494-35 1512L-35 1557Z"  horiz-adv-x="435" vert-adv-y="2048"  />

      
      <glyph glyph-name="uni61" unicode="&#x61;" d="M289 594L322 594Q347 594 373 543L373 424Q305 173 305 153Q331 85 356 85L424 85Q560 175 645 204Q485 34 356 34Q272 53 272 170Q134 0 119 0L68 0Q41 0 0 68L0 119Q43 594 289 594M102 373L102 289Q136 221 204 221Q339 366 339 492L339 543Q213 543 187 458Q141 458 102 373M51 272L34 153Q51 34 85 34Q117 40 221 187Q149 187 51 272Z"  horiz-adv-x="580" vert-adv-y="2048"  />

      
      <glyph glyph-name="uni62" unicode="&#x62;" d="M347 1386L410 1386L410 1303Q410 1096 243 552L264 552Q527 552 598 343Q598 91 55-116Q383 87 493 197L556 322Q556 468 326 489Q180 489 180 197L180 72Q221 51 243 51Q243 9 201 9Q171 9 139 72L139 176Q139 353 180 447L159 447Q13 385 13 280L-49 280L-70 385Q201 532 201 572Q326 990 368 1261Q347 1297 347 1344L347 1386Z"  horiz-adv-x="655" vert-adv-y="2048"  />

      
      <glyph glyph-name="uni63" unicode="&#x63;" d="M249 496L278 496L426 467L426 378L367 408L337 408Q131 408 131 202L190 172L220 172L1014 378L1014 319L190 84Q43 132 43 261Q95 393 249 496Z"  horiz-adv-x="804" vert-adv-y="2048"  />

      
      <glyph glyph-name="uni64" unicode="&#x64;" d="M890 1385L916 1385Q916 1200 389 15L389-64L442-64L442-90Q442-143 389-143L310-143L310-117Q310-18 389 199Q238 68 126 68Q99 68 20 173L47 226L47 252L-6 331L-6 358Q-6 568 284 621L363 621Q468 584 468 410L495 410L863 1359Q863 1385 890 1385M73 437L73 410L99 410Q99 489 152 489L284 463L284 437Q138 437 99 199Q126 148 126 120Q416 246 416 437Q376 542 336 542L257 542Q116 542 73 437Z"  horiz-adv-x="702" vert-adv-y="2048"  />

      
      <glyph glyph-name="uni65" unicode="&#x65;" d="M441 597Q560 547 571 493Q440 277 208 182Q157 156 130 156L104 208Q420 374 467 467L467 493Q78 424 78 182L78 130Q78 52 182 52L701 156L727 156L727 130Q317 0 234 0L208 0Q54 0 0 156Q0 420 441 597Z"  horiz-adv-x="649" vert-adv-y="2048"  />

      
      <glyph glyph-name="uni66" unicode="&#x66;" d="M674 1496L722 1496Q770 1488 770 1448L770 1376Q770 1327 722 1327L722 1376Q635 1376 337 605L361 605Q683 773 1035 870Q1006 810 505 629Q216 511 216 75Q192 75 192-46Q240-202 240-262L240-359Q240-407 192-407L144-407Q144 55-97 171L-121 219L-121 267Q-121 303 264 581Q264 634 674 1496M-25 316Q-25 292-1 292L-25 243L-25 219Q-25 184 144 51L216 460Q30 335-25 316Z"  horiz-adv-x="838" vert-adv-y="2048"  />

      
      <glyph glyph-name="uni67" unicode="&#x67;" d="M391 597L412 597Q456 597 456 532L412 445Q450 445 478 336Q478 298 347 75Q347 9 304-78L325-78Q687 292 761 292Q212-197 151-600Q37-984-611-1819Q-653-1841-676-1841L-676-1797Q-423-1131 238-165Q260-129 260-56L260 31L216 9Q86 9 86 140Q86 332 391 597M325 445L304 336L325 183Q382 183 412 336Q370 435 325 445M129 96L195 53L282 118L260 270L260 358L238 358Q129 267 129 96M151-361Q-524-1435-524-1623Q48-871 173-383L173-361L151-361Z"  horiz-adv-x="618" vert-adv-y="2048"  />

      
      <glyph glyph-name="uni68" unicode="&#x68;" d="M626 1590L682 1590Q738 1581 738 1534Q612 1474 176 271L429 495Q485 487 485 439L485 411L457 243Q499 130 541 130L934 383L934 355Q669 74 513 74Q401 74 401 383Q334 364 8-66L-20-66L-20-38L626 1590Z"  horiz-adv-x="804" vert-adv-y="2048"  />

      
      <glyph glyph-name="uni69" unicode="&#x69;" d="M546 928L573 928L573 873Q482 873 464 710L437 710L382 792L382 846Q409 928 546 928M300 600L328 600Q382 592 382 546Q191 437 109 273L82 136L82 82L164 82Q342 185 600 437L628 437Q311 0 82 0L0 164Q134 485 300 600Z"  horiz-adv-x="496" vert-adv-y="2048"  />

      
      <glyph glyph-name="uni6a" unicode="&#x6a;" d="M385 992L476 992L476 937Q476 901 439 901L385 901Q385 937 366 937Q385 973 385 992M330 647Q348 611 348 592L130-26L148-26L494 265L512 265Q512 226 148-81Q104-138-234-881Q-388-1081-415-1081Q-442-1081-470-1026L-470-1008Q-304-383 76-99L312 647L330 647M-379-954L-379-990L-361-990Q-147-668 21-208Q-379-604-379-954Z"  horiz-adv-x="473" vert-adv-y="2048"  />

      
      <glyph glyph-name="uni6b" unicode="&#x6b;" d="M572 1285Q572 1243 179 238Q528 616 637 674L703 674Q519 547 267 260L267 216Q267 166 376 151Q403 151 594 172Q636 151 659 151L659 129Q610 129 572 107L528 129Q442 107 376 107Q306 107 201 194Q54-133 27-133L-17-133L-17-111Q310 691 528 1285L572 1285Z"  horiz-adv-x="612" vert-adv-y="2048"  />

      
      <glyph glyph-name="uni6c" unicode="&#x6c;" d="M608 1346L628 1346L689 1305Q689 1168 284 617Q277 545 254 466Q233 402 81 49L81 29Q115 9 183 9L183-32Q137-32 102-52L21 9L174 420L203 536L183 536Q74 332 0 292L-20 292L-20 313Q352 765 441 1043Q481 1083 568 1326L608 1346M608 1245Q538 1156 405 880L426 880Q649 1175 649 1245L608 1245Z"  horiz-adv-x="522" vert-adv-y="2048"  />

      
      <glyph glyph-name="uni6d" unicode="&#x6d;" d="M266 649L349 649L349 566Q293 501 155 177L182 177Q182 243 515 538L543 538L543 427L515 233Q849 504 849 621L932 621Q821 333 821 38Q779 38 737 149L793 399Q751 399 432 38L377 38L460 316L460 399Q262 245 16-156L-12-156Q-12-55 266 621L266 649Z"  horiz-adv-x="873" vert-adv-y="2048"  />

      
      <glyph glyph-name="uni6e" unicode="&#x6e;" d="M137 588L220 588L220 560Q220 495 27 201L27 174Q337 450 386 450L413 395Q386 245 386 146Q386 107 468 63Q579 63 827 119L855 119L855 91Q642 8 468 8Q303 8 303 229Q330 277 330 340Q288 340-111-47L-139-47Q-139 6 137 588Z"  horiz-adv-x="821" vert-adv-y="2048"  />

      
      <glyph glyph-name="uni6f" unicode="&#x6f;" d="M349 580Q495 580 587 395Q433 0 86 0L33 0Q-27 0-46 132Q51 554 270 554Q270 580 349 580M191 475L270 369Q112 316 112 264L112 237L191 132L139 132L59 185L33 132L33 105Q33 53 112 53Q327 53 508 343Q474 475 429 475L191 475Z"  horiz-adv-x="690" vert-adv-y="2048"  />

      
      <glyph glyph-name="uni70" unicode="&#x70;" d="M504 620Q731 552 731 461L731 416Q506 95 141-15Q141 7 119 7Q-114-906-244-1059Q-244-1036-267-1036Q-70-507 187 348L255 348Q141 53 141 30L164 30Q342 64 686 416Q686 538 436 575Q58 575-131 325L-154 325L-154 416Q84 620 504 620Z"  horiz-adv-x="826" vert-adv-y="2048"  />

      
      <glyph glyph-name="uni71" unicode="&#x71;" d="M371 664Q441 648 495 541Q495 530 433 314L454 314Q945 520 989 520Q960 487 309 170Q207 34 207 5Q186-103 186-118Q350-207 412-303L412-324Q412-448 207-612Q145-540 145-365L145-180Q145-142 62 26L42 26Q21 26 21 5Q-61 36-61 67L-61 88Q-61 124 42 376Q94 664 371 664M248 582Q1 213 1 129L1 67Q193 67 433 479L433 520Q433 550 371 582L248 582M145 47Q145 25 124-15L165-15L165 47L145 47M186-180L186-283L207-530L248-530Q351-380 351-324Q351-298 186-180Z"  horiz-adv-x="895" vert-adv-y="2048"  />

      
      <glyph glyph-name="uni72" unicode="&#x72;" d="M315 638L361 638L361 615L315 545L315 522L547 615L570 568Q292 349 292 198L292 35L315 35L1219 406L1242 406Q1209 347 338-11L292-11Q222 12 222 128Q222 299 385 476Q280 476 246 499Q2 383-79 383Q-79 437 222 545Q222 582 315 638Z"  horiz-adv-x="1177" vert-adv-y="2048"  />

      
      <glyph glyph-name="uni73" unicode="&#x73;" d="M232 661L290 661Q332 661 375 547Q147 547 147 490Q147 439 404 376L461 290Q121-81-110-81L-110 5Q27 5 352 239L375 319Q61 360 61 490Q61 661 232 661Z"  horiz-adv-x="528" vert-adv-y="2048"  />

      
      <glyph glyph-name="uni74" unicode="&#x74;" d="M558 1197Q603 1197 603 1129Q400 903 265 407L287 407L671 474L671 429Q197 378 197 203Q197 0 152 0Q122 0 61 226Q30 227-29 339L-29 361Q242 361 242 519Q371 914 558 1197M107 294Q107 261 174 226L174 316Q131 294 107 294Z"  horiz-adv-x="632" vert-adv-y="2048"  />

      
      <glyph glyph-name="uni75" unicode="&#x75;" d="M223 710L289 710Q289 676 26 183L4 52L4 8L48 8Q209 125 465 513L487 513L487 491Q355 214 355 139Q362 96 399 96L509 118L509 96Q509 74 421 30Q311 30 311 205Q78-58 26-58Q-17-36-40-36L-40 52Q-40 185 223 688L223 710Z"  horiz-adv-x="557" vert-adv-y="2048"  />

      
      <glyph glyph-name="uni76" unicode="&#x76;" d="M662 794L662 741L53 0Q0 0 0 53L0 344Q0 371-9 394L0 423L0 556Q8 609 53 609Q106 600 106 556L106 529L102 491L106 476Q72 443 53 106L662 794Z"  horiz-adv-x="490" vert-adv-y="2048"  />

      
      <glyph glyph-name="uni77" unicode="&#x77;" d="M799 902L876 902Q515 298 309 26L283 26Q219 26 206 129Q51 0 26 0L0 52Q77 461 77 541L77 593L129 593Q180 585 180 541Q77 225 77 129L206 232Q265 232 283 103Q479 345 799 902Z"  horiz-adv-x="615" vert-adv-y="2048"  />

      
      <glyph glyph-name="uni78" unicode="&#x78;" d="M198 597L258 597Q318 410 318 399Q420 498 496 498L536 438L536 418Q368 418 318 319L318 180Q318 136 321 34Q337-21 337-58L298-58Q259 5 259 105Q259 129 261 156Q274 203 274 248Q274 264 272 280L238 260L0 2L0 21Q0 71 278 359Q258 498 198 597Z"  horiz-adv-x="597" vert-adv-y="2048"  />

      
      <glyph glyph-name="uni79" unicode="&#x79;" d="M297 581L322 581Q100 272 100 162Q137 63 174 63Q424 291 470 458L519 458L519 408Q396-148 322-282L346-282Q461-134 607-57L618-84Q278-364 149-701Q-168-1588-442-1588L-467-1539L-467-1514Q-467-1307 248-331Q346-121 420 236Q224 14 149 14Q51 39 51 162Q51 360 297 581M115-568Q-308-1153-361-1445L-336-1445Q-222-1445 157-508L115-568Z"  horiz-adv-x="681" vert-adv-y="2048"  />

      
      <glyph glyph-name="uni7a" unicode="&#x7a;" d="M439 594Q594 594 594 465L749 465Q749 413 697 413L697 439Q637 439 181 77L362 77Q492 77 671 129L697 77Q362 0 258 0L155 0L26 26L26 103Q192 103 491 387L465 387Q211 387 52 232Q0 232 0 284L0 336Q351 439 517 439L542 439L542 517L439 542Q322 542 0 439L0 465Q0 542 439 594Z"  horiz-adv-x="727" vert-adv-y="2048"  />

      
      <glyph glyph-name="uni7b" unicode="&#x7b;" d="M640 1714Q668 1714 699 1654L620 1654Q421 1205 263 900Q322 789 322 682L223-33Q223-132 402-132Q536-132 1017-53L1037-53L1037-73Q611-172 461-172L382-172Q228-172 183-73L183 7L282 702Q271 816 223 880L124 860L104 860Q-55 880-55 1019L-15 1039L64 1039L203 960L243 960Q373 1182 580 1674L640 1714M24 979Q24 951 84 920L163 920Q144 979 44 979L24 979Z"  horiz-adv-x="803" vert-adv-y="2048"  />

      
      <glyph glyph-name="uni7c" unicode="&#x7c;" d="M185 1514Q233 1514 233 1443Q138 482 138 189L138 118L114 0L67 0L162 1372L185 1372L162 1419Q185 1461 185 1514Z"  horiz-adv-x="113" vert-adv-y="2048"  />

      
      <glyph glyph-name="uni7d" unicode="&#x7d;" d="M381 1591L421 1591Q460 1585 460 1552L460 1512Q381 1205 381 1117Q381 1080 440 960L638 979L657 881Q657 841 618 841Q584 841 500 881Q480 842 480 821L539 348Q539-70 144-244L105-244L105-224Q500-39 500 308Q445 821 401 821L421 960Q357 960 342 1177Q342 1212 421 1532Q401 1532 401 1552L243 1453L223 1453L223 1512Q271 1512 381 1591Z"  horiz-adv-x="617" vert-adv-y="2048"  />

      
      <glyph glyph-name="uni7e" unicode="&#x7e;" d="M238 441Q355 441 439 206Q457 206 489 190Q533 190 908 340Q908 290 523 156L472 156Q423 156 288 391Q255 391 255 407Q226 403 121 324L87 324L87 357Q154 441 238 441Z"  horiz-adv-x="1014" vert-adv-y="2048"  />

      
      <glyph glyph-name="unia2" unicode="&#xa2;" d="M647 864L707 864L728 763L707 763Q668 783 647 783Q465 636 405 420Q332 384 203 138Q223 138 223 118Q163 118 163 57L203 57Q607 259 607 400L647 400Q647 217 143-23Q-140-546-140-810L-140-850L-160-850L-200-830Q-184-601 82-23Q-10 16-19 57L-19 98Q-19 307 425 582Q460 702 647 864M42 118L42 37L82 37Q108 37 304 400L304 441Q42 273 42 118Z"  horiz-adv-x="792" vert-adv-y="2048"  />

      
      <glyph glyph-name="unia3" unicode="&#xa3;" d="M472 1096L501 1096Q615 1037 615 854Q586 819 586 797L543 797L586 925Q551 1035 501 1053Q423 1053 330 540L629 583Q629 547 315 497Q315 407 130 70Q777-26 828-87L814-87L102 41Q65-30-12-30Q-41 5-41 27Q-41 95 30 155Q30 136 102 84Q265 363 273 483L258 483L-27 412L-41 440Q-41 466 258 512Q310 512 372 925Q428 1070 472 1096M30 84L16 13L30 13Q51 13 73 56Q73 84 45 84L30 84Z"  horiz-adv-x="739" vert-adv-y="2048"  />

      
      <glyph glyph-name="unia5" unicode="&#xa5;" d="M32 1305Q76 1263 145 854Q236 645 258 644Q337 644 387 1063Q530 1273 564 1273L596 1273Q628 1268 628 1241Q628 1165 403 789L403 661Q569 741 644 741L661 741L661 725Q411 651 403 596L403 564Q618 612 725 612Q854 602 854 564L677 564Q387 564 387 451L290 0Q258 0 258 32Q338 366 338 483L338 499Q129 406 129 322L113 322Q90 322 64 371Q257 531 338 532L338 596Q125 483 16 451L0 483L0 499Q19 499 242 580L242 596Q69 868 32 1241Q16 1241 0 1289L32 1305M387 870L387 838L403 838Q596 1186 596 1224Q387 1107 387 870Z"  horiz-adv-x="771" vert-adv-y="2048"  />

      
      <glyph glyph-name="unia7" unicode="&#xa7;" d="M347 1371L365 1371Q405 1371 417 1283L417 1265L400 1265Q400 1318 365 1318L347 1318L312 1301Q312 1318 294 1318Q294 1297 189 1213Q153 1103 153 1037Q153 803 312 649L312 632Q224 568 224 297Q-140-882-181-882Q189 274 189 438L189 509L153 491L136 491Q89 511 13 649L30 685Q158 645 224 597L259 597L259 649Q167 742 101 1037Q171 1371 347 1371M118 597Q136 562 136 544L171 544L171 579Q152 579 118 597Z"  horiz-adv-x="438" vert-adv-y="2048"  />

      
      <glyph glyph-name="unia9" unicode="&#xa9;" d="M968 1129Q1336 1129 1705 645Q1810 407 1810 287Q1810-112 631-240Q180-240-1 244L-1 308Q-1 645 631 876Q775 897 863 897L905 897Q947 891 947 855Q259 855 62 371L62 244Q62-57 526-177L757-177Q1204-177 1684 118Q1747 192 1747 371Q1727 575 1515 813Q1223 1087 884 1087Q836 1087 799 1066Q778 1066 778 1087Q506 1087 189 771Q83 650 83 560L41 560Q41 819 526 1045Q660 1129 968 1129M841 708Q872 708 905 645L905 624Q746 624 526 392L526 350L547 350Q1003 476 1136 476L1157 434L504 308Q462 308 462 350L462 392Q535 492 841 708Z"  horiz-adv-x="1978" vert-adv-y="2048"  />

      
      <glyph glyph-name="uniac" unicode="&#xac;" d="M894 844Q941 837 941 797L562 441L562 488Q799 736 799 773Q257 607 88 607L64 654L88 702L254 678L894 844Z"  horiz-adv-x="1014" vert-adv-y="2048"  />

      
      <glyph glyph-name="uniae" unicode="&#xae;" d="M906 1584Q1055 1557 1055 1518Q1055 1446 923 1320L923 1304L1038 1155L1038 1139L1022 1139Q1005 1139 840 1320L824 1238L824 1089Q824 1056 791 1056Q791 1073 774 1073Q791 1266 791 1353L791 1469L824 1469Q824 1370 873 1370Q947 1398 1005 1485L1005 1518L923 1535Q701 1535 675 1370L642 1370Q609 1370 609 1403L609 1419Q641 1503 906 1584M1059 1663Q1284 1635 1284 1455L1284 1363Q1082 901 738 901L642 901Q449 981 449 1132Q545 1468 770 1640Q833 1617 867 1617Q972 1663 1059 1663M545 1040Q545 1003 674 947L706 947Q1040 947 1220 1432Q1176 1594 1092 1594L931 1594Q661 1594 545 1201L545 1040Z"  horiz-adv-x="1674" vert-adv-y="2048"  />

      
      <glyph glyph-name="unib0" unicode="&#xb0;" d="M104 1475L114 1475Q178 1475 200 1411Q200 1336 125 1336L104 1336Q69 1336 61 1443L104 1475M136 1443L104 1400L104 1379Q107 1357 125 1357L168 1389Q154 1443 136 1443Z"  horiz-adv-x="287" vert-adv-y="2048"  />

      
      <glyph glyph-name="unib1" unicode="&#xb1;" d="M296 544L307 520Q284 473 284 451L319 451L377 439L377 416L331 416L273 404L273 335L296 300L296 265L284 207L249 207L249 288Q249 381 133 381L110 381L110 416Q261 432 261 485Q276 544 296 544M214 404Q218 381 238 381L249 404L249 416Q227 404 214 404M377 195L377 172Q294 160 133 114L122 137L122 149L377 195Z"  horiz-adv-x="499" vert-adv-y="2048"  />

      
      <glyph glyph-name="unib4" unicode="&#xb4;" d="M273 1696L296 1696L296 1674Q194 1429 162 1429L162 1474Q162 1585 273 1696Z"  horiz-adv-x="441" vert-adv-y="2048"  />

      
      <glyph glyph-name="unib5" unicode="&#xb5;" d="M155 595Q223 578 223 494L223 477Q223 376 88-95Q415 216 492 477L526 477L526 427Q526 388 374 107L374 90L357 90L357 141Q77-179 37-247Q-53-536-148-617L-181-617Q-206-617-232-566L-232-550L-148-566Q37-255 37 157L155 595M172 494Q172 476 155 444Q172 444 172 427Q126 427 88 141L88 107L105 107Q105 143 189 444L189 494L172 494Z"  horiz-adv-x="615" vert-adv-y="2048"  />

      
      <glyph glyph-name="unib6" unicode="&#xb6;" d="M636 1403Q734 1361 744 1317L615 1317Q529 1105 529 951L615 951L615 908Q441 908 400 650Q256-59 206-59L206-38Q206 104 400 865Q262 677 77-468L56-468L56-425Q56-117 292 822Q48 758 13 758Q-86 799-95 844L-95 865Q-95 1160 421 1381Q448 1381 636 1403M486 1338Q464 1145 378 908L400 908Q447 908 550 1317L507 1338L486 1338M-52 844L-9 822L13 822Q378 822 378 1102Q421 1102 421 1317L400 1317Q-52 1117-52 844Z"  horiz-adv-x="632" vert-adv-y="2048"  />

      
      <glyph glyph-name="unibc" unicode="&#xbc;" d="M464 748L481 748L481 732Q248 463 239 362L207 362Q207 402 271 539Q147 455 111 442L94 442L94 458Q127 458 159 523Q291 590 464 748M706 523Q120 146 14 56L14 105Q616 523 706 523M545 265L545 233Q481 165 481 105L497 105Q565 150 641 217L674 217L674 201Q481-52 481-137L481-185L432-185Q432-169 448-169L432-137Q464-35 545 88L513 72L448 72L448 121Q448 253 545 265Z"  horiz-adv-x="771" vert-adv-y="2048"  />

      
      <glyph glyph-name="unibd" unicode="&#xbd;" d="M976 762L976 740Q744 574 15-90L-29-90L-29-46L189 150L168 194Q229 355 364 565L342 565Q342 536 233 456L189 456Q189 491 452 740L473 740L473 653Q293 385 211 172L233 172Q878 762 976 762M605 260L626 216L626 172L473-24Q676 85 801 85L889 85L889 41Q729 41 408-90Q408-68 386-68Q422 4 561 172L539 172L473 128L452 128L452 150Q517 260 605 260Z"  horiz-adv-x="1050" vert-adv-y="2048"  />

      
      <glyph glyph-name="unibe" unicode="&#xbe;" d="M306 786L376 786Q400 786 446 646Q271 435 271 419L219 419L219 437Q393 619 393 646L376 646L289 629L289 681L358 699L358 734L289 734Q306 767 306 786M672 611L672 577Q672 550 428 419Q13 98-78 53L-78 88Q618 611 672 611M463 315L463 280Q411 216 411 158L428 158L603 280L638 280L638 262Q376-33 376-139L341-139Q363-18 463 123Q358 123 358 193Q397 299 463 315Z"  horiz-adv-x="739" vert-adv-y="2048"  />

      
      <glyph glyph-name="unid7" unicode="&#xd7;" d="M699 565Q750 557 750 514L750 463L648 463Q562 463 469 387Q495 332 520 157L444 157L418 285L393 285Q363 285 214 55L214 81Q317 412 418 412L393 463L393 540L469 540L469 463Q622 565 699 565Z"  horiz-adv-x="1014" vert-adv-y="2048"  />

      
      <glyph glyph-name="unif7" unicode="&#xf7;" d="M480 491L514 441L514 424Q496 424 464 408L447 441L447 458Q452 491 480 491M797 391L864 391Q864 358 530 324L147 224L130 257Q130 297 797 391M547 241L564 207L564 174L514 174L514 207Q519 241 547 241Z"  horiz-adv-x="1014" vert-adv-y="2048"  />

      
      <glyph glyph-name="uni02DC" unicode="&#x02DC;" d="M244 1603Q346 1603 418 1400Q434 1400 462 1386Q500 1386 824 1516Q824 1473 491 1357L447 1357Q404 1357 288 1560Q259 1560 259 1574Q234 1571 143 1502L114 1502L114 1531Q172 1603 244 1603Z"  horiz-adv-x="884" vert-adv-y="2048"  />

      
      <glyph glyph-name="uni0401" unicode="&#x0401;" d="M539 1780L593 1780Q647 1772 647 1726Q647 1672 593 1672L566 1672L512 1699Q539 1751 539 1780M998 1780L1106 1780L1106 1726L971 1699L944 1699L944 1726Q952 1780 998 1780M1052 1402Q1214 1386 1214 1322L1160 1295L998 1295Q713 1295 485 998L485 863L566 755L755 782L809 782Q863 774 863 728L863 701Q146 593 54 216Q54 115 297 54Q1407 270 1537 270L1591 270L1591 243Q496 0 243 0Q101 0 0 162L0 243Q0 468 485 674L485 728Q405 827 405 917Q405 1222 1052 1402Z"  horiz-adv-x="1560" vert-adv-y="2048"  />

      
      <glyph glyph-name="uni0410" unicode="&#x0410;" d="M-78 1495L-53 1444L-53 781L-27 781Q202 857 279 857L330 857Q330 823-27 704L-53 653L-53 373Q-53 50 75-239Q49-289 49-316L24-316Q-35-316-129 67Q-351 220-512 220L-563 220Q-592 220-741-10L-741 16L-690 194L-792 194Q-922 194-1098 143L-1124 194L-1124 220Q-410 541-410 730Q-206 1181-104 1495L-78 1495M-129 1265Q-166 1136-384 653L-359 653Q-225 653-104 781L-104 1265L-129 1265M-537 271Q-407 271-104 143L-104 347Q-104 653-155 653Q-537 532-537 271M-869 245L-767 245Q-614 245-563 424L-588 424Q-869 299-869 245Z"  horiz-adv-x="1205" vert-adv-y="2048"  />

      
      <glyph glyph-name="uni0411" unicode="&#x0411;" d="M1198 1743L1219 1743L1219 1723Q-183 1333-559 864Q-600 864-600 905Q-83 1437 1198 1743M-150 1150L-130 1150L-130 762L-109 762Q154 864 381 864Q749 864 749 680Q749 523-48 6L-212-96L-212-76Q-212-55-130 6Q-171 660-212 660Q-641 429-641 313L-702 313L-702 354Q-615 482-191 742Q-171 778-171 824L-171 1028L-191 1130L-150 1150M-130 640Q-130 246-48 67Q478 367 687 660L708 701Q670 824 361 824Q-130 763-130 640Z"  horiz-adv-x="1586" vert-adv-y="2048"  />

      
      <glyph glyph-name="uni0412" unicode="&#x0412;" d="M333 1427L355 1427Q648 1399 648 1202Q626 997 288 730Q648 730 648 528Q648 357 108-12Q87-12-94-79Q-138-57-162-57L-162-34Q-72-34-4 1292Q-27 1292-27 1315Q-434 1177-679 955L-701 955L-701 1000Q-153 1427 333 1427M41 1270L41 1045Q41 932 18 708L63 708Q280 708 580 1135L580 1202Q580 1382 333 1382Q41 1350 41 1270M-49-12L-27-12Q580 284 580 550Q580 685 355 685L310 685Q-4 655-4 550Q-49 78-49-12Z"  horiz-adv-x="1067" vert-adv-y="2048"  />

      
      <glyph glyph-name="uni0413" unicode="&#x0413;" d="M1670 1888L1695 1888L1695 1863Q1380 1863-76 1189Q-498 932-600 765L-625 765Q-675 765-675 815Q-368 1126 597 1564Q1471 1888 1670 1888M123 1189L173 1189L198 1065Q198-8-1-8L-26-8Q-243-8-351 167L-351 192L-326 192Q-180 67-26 67Q123 67 123 765L123 1189Z"  horiz-adv-x="936" vert-adv-y="2048"  />

      
      <glyph glyph-name="uni0414" unicode="&#x0414;" d="M1365 1499L1454 1499Q2015 1499 2187 1210Q2187 893 364 209Q53 85 53-13Q53-80 9-80L-36-80L-36-57Q-14-14-14 9L-36 9Q-328-124-347-124L-369-124L-369-102Q31 42 31 232L31 298Q-6 1232-36 1232Q-476 1117-770 832L-814 832L-814 854Q-586 1113 53 1321Q705 1499 1365 1499M53 1254Q75 364 75 143L97 143Q1658 757 2076 1076L2098 1121L2098 1210Q1941 1454 1320 1454Q631 1454 53 1254Z"  horiz-adv-x="1615" vert-adv-y="2048"  />

      
      <glyph glyph-name="uni0415" unicode="&#x0415;" d="M475 1406Q666 1406 683 1328L657 1328Q564 1328 423 1354Q-432 924-432 654Q-384 525-225 525L-199 525Q-115 587 9 628Q112 589 112 550Q112 455-251 421Q-406 295-406 265L-406 187Q-371 84-173 84L242 84Q396 84 838 136L838 84L164 6Q-484 25-484 162L-484 187Q-484 290-328 447L-484 602L-484 680Q-484 947 397 1406L475 1406Z"  horiz-adv-x="1337" vert-adv-y="2048"  />

      
      <glyph glyph-name="uni0416" unicode="&#x0416;" d="M437 1449L458 1406L458 1384Q307 1384 155 821Q231 691 263 691Q786 1103 913 1103L934 1103Q966 1103 999 1038L999 973L978 973L891 1016Q661 968 307 648Q586 259 740 259L740 215Q696 215 696 194Q560 238 263 605Q-18 489-18 42Q-40 42-40-1L-61-1L-61 64Q-61 109-18 367Q-181 277-559-131L-559-88Q-559-41 4 475L90 800Q28 899-234 1189L-191 1211Q82 886 112 886Q313 1449 437 1449M112 735Q112 702 69 540L90 540Q119 540 199 648L199 670Q199 701 134 735L112 735Z"  horiz-adv-x="1096" vert-adv-y="2048"  />

      
      <glyph glyph-name="uni0417" unicode="&#x0417;" d="M332 1432L460 1432Q690 1432 690 1227L690 1150Q541 954 306 894Q665 674 665 510L665 433Q488 190-488-131L-514-131L-514-105Q486 267 613 484Q613 729 229 791L-27 791L-27 843Q327 882 639 1201L639 1253Q639 1369 357 1381Q57 1381-386 1176L-386 1253Q22 1432 332 1432Z"  horiz-adv-x="1090" vert-adv-y="2048"  />

      
      <glyph glyph-name="uni0418" unicode="&#x0418;" d="M804 1537Q848 1537 848 1470Q294 635 294 29L272 29L272 162Q272 341 405 761Q38 233-238-60L-261-60Q-305-60-305-16Q-305 342 6 1138L6 1160L-17 1160Q-17 1095-150 982L-172 982Q-78 1165 139 1382L183 1382L183 1337Q-182 706-238 95L-238 29Q354 657 693 1426Q693 1456 804 1537Z"  horiz-adv-x="942" vert-adv-y="2048"  />

      
      <glyph glyph-name="uni0419" unicode="&#x0419;" d="M1180 2122Q1152 2088 174 1687Q114 1574 82 1573Q49 1573 14 1642Q396 1887 1180 2122M883 1367Q906 1323 906 1299Q711 1098 494 269Q448-71 448-211Q402-211 402-165Q402 198 608 887L-9 63Q-49 41-101 41L-169 132L-169 178Q-169 472 59 1138L36 1138L-215 910L-238 910L-238 933Q-235 974-32 1138Q42 1270 128 1321Q174 1314 174 1276Q-9 848-124 246Q-101 209-101 132L-55 132Q114 270 814 1276Q826 1367 883 1367Z"  horiz-adv-x="890" vert-adv-y="2048"  />

      
      <glyph glyph-name="uni041A" unicode="&#x041A;" d="M1069 1668L1069 1594Q545 1046 184 414Q338 94 700 94L700 45L676 45Q405 45 135 340L110 340Q-111-176-136-176L-185-176L85 906L-87 734L-136 734L-136 783Q-87 783 61 980Q126 1028 233 1324L282 1324L282 1299L61 586L159 512Q676 1250 1069 1668M61 463Q61 404-37 267L-37 193Q-7 193 110 414Q110 463 61 463Z"  horiz-adv-x="884" vert-adv-y="2048"  />

      
      <glyph glyph-name="uni041B" unicode="&#x041B;" d="M623 1482L674 1482L674 1457Q674 1380 294 621Q269 488 269 368L269 165Q296 165 345 140Q589 231 725 342L750 342L750 317Q555 89 320 89L294 89Q193 130 193 266L193 393L218 520L168 520Q30 255-339-139L-415-139L-415-88Q370 708 370 1051Q564 1470 623 1482Z"  horiz-adv-x="1076" vert-adv-y="2048"  />

      
      <glyph glyph-name="uni041C" unicode="&#x041C;" d="M1185 1501L1185 1479Q1185 1434 883 919Q754 601 754 380L754 207Q754 48 819 35L862 35L1121 337L1121 294Q965-30 819-30Q717-30 689 315L732 639L344 13L301 13Q269 13 236 99L301 595Q-133-73-238-73L-259-73L-281-30Q-281 208-238 380L-173 380L-173 337Q-238 114-238 13L-195 13Q268 530 452 1091Q560 1319 560 1350L603 1350L646 1329Q301 649 301 143L301 78Q542 366 1077 1393L1185 1501Z"  horiz-adv-x="1380" vert-adv-y="2048"  />

      
      <glyph glyph-name="uni041D" unicode="&#x041D;" d="M932 1548L1007 1548L1007 1523L831 1121Q561 625 455 268L455 167L480 117L430 92Q379 173 379 217Q379 325 756 1121L756 1146Q-47 334-47 217Q-127-84-198-84L-248-84Q-284-84-324-9Q-324 80-72 393L103 1146Q-369 544-399 544L-424 544L-424 569Q213 1345 254 1523L304 1523L304 1422Q113 1101 3 468L28 468Q913 1339 932 1548M-173 167Q-173 99-223 16L-198 16Q-148 16-123 167L-173 167Z"  horiz-adv-x="1101" vert-adv-y="2048"  />

      
      <glyph glyph-name="uni041E" unicode="&#x041E;" d="M927 1456L993 1456Q1213 1427 1213 1213Q1213 738 596 110Q395 0 309 0Q60 0 0 485L22 485L0 529Q0 862 397 1213Q772 1456 927 1456M419 1147Q463 1140 463 1103Q205 1103 66 507L66 463Q66 66 309 66L331 66Q701 66 1125 971Q1169 1072 1169 1191Q1111 1412 949 1412L860 1412Q466 1240 419 1147Z"  horiz-adv-x="1267" vert-adv-y="2048"  />

      
      <glyph glyph-name="uni041F" unicode="&#x041F;" d="M828 1635L854 1635L854 1610Q-374 1257-707 1006Q-707 883-28 779Q17 835 174 1333L249 1333L249 1308Q105 1064 73 779L350 703Q426 829 426 880L451 880Q501 872 501 829Q451 678 426 678Q602 462 602 351L602 275Q571 24 501 24L476 24Q325 135 325 351L325 577Q13 266-229-52L-254-52L-254-27Q-28 601-28 729L-28 754Q-783 845-783 980L-783 1006Q-556 1226 375 1509Q756 1635 828 1635M48 703Q-28 502-103 225Q275 565 275 628Q275 703 48 703M400 527Q375 483 375 426L375 376Q414 99 501 99L551 401Q551 527 400 527Z"  horiz-adv-x="1148" vert-adv-y="2048"  />

      
      <glyph glyph-name="uni0420" unicode="&#x0420;" d="M791 1729L973 1729Q1362 1671 1362 1417Q1362 1006 168 612L142 612Q196 682 817 924Q1123 1113 1284 1313L1284 1495Q1284 1651 843 1677Q189 1677-949 976Q-975 937-975 820L-1027 820Q-1064 820-1105 898Q-746 1247 220 1625Q598 1729 791 1729M64 1210Q116 1201 116 1158Q-40 824-40 171L-40 119L-14-11L-66-37L-92 15L-92 353Q-92 715 38 1210L64 1210Z"  horiz-adv-x="647" vert-adv-y="2048"  />

      
      <glyph glyph-name="uni0421" unicode="&#x0421;" d="M996 1418Q1105 1372 1115 1323L1115 1203L1091 1203Q1037 1203 1020 1323L877 1323Q512 1260-150 511Q-221 375-245 272Q-229 10-30 10L17 10Q172 10 924 320L972 320Q972 264 208-14Q116-38 17-38L-78-38Q-293-38-293 225L-293 248Q-293 680 709 1323Q873 1418 996 1418Z"  horiz-adv-x="1287" vert-adv-y="2048"  />

      
      <glyph glyph-name="uni0422" unicode="&#x0422;" d="M2113 1790L2134 1790L2134 1769Q1687 1769-764 874L-785 831Q-264 682-82 554Q-34 554 46 1065L110 1065Q3 634 3 490Q131 328 131 213Q52 0-18 0Q-61 70-61 128L-61 384Q-61 622-870 788L-913 852Q1360 1752 2113 1790M-18 405L-18 128L25 128L67 256Q38 405-18 405Z"  horiz-adv-x="580" vert-adv-y="2048"  />

      
      <glyph glyph-name="uni0423" unicode="&#x0423;" d="M255 1488L277 1444L124 920L124 811L167 789L189 789Q735 1147 735 1335L757 1335Q801 1328 801 1291Q742 816 320 68Q162-106 124-107L58-107Q-104-107-226 155L-182 177L-160 177Q-160 54 80-41Q322-41 692 1051L692 1073L648 1073Q241 723 145 723Q58 745 58 833Q58 954 211 1401L-8 1160L-8 1204Q101 1442 233 1488L255 1488Z"  horiz-adv-x="824" vert-adv-y="2048"  />

      
      <glyph glyph-name="uni0424" unicode="&#x0424;" d="M1490 1641L1515 1641L1515 1591Q1515 1578 1389 1439Q2171 1383 2171 1086Q2171 874 1035 555Q991 474 833 0L783 0L934 505Q909 505 909 530Q559 480 379 480Q0 529 0 757Q0 996 959 1237Q1237 1256 1237 1313L1136 1338Q872 1338 151 985L126 985Q126 1076 783 1313Q1389 1400 1389 1565L1490 1641M1313 1313L1313 1262L1338 1212Q1203 1212 1035 656L1086 656Q2070 900 2070 1060Q2070 1320 1464 1389Q1313 1355 1313 1313M76 757Q76 555 353 555L454 555Q1010 555 1010 732Q1010 808 1161 1161Q1112 1187 1086 1187Q627 1187 76 808L76 757Z"  horiz-adv-x="1168" vert-adv-y="2048"  />

      
      <glyph glyph-name="uni0425" unicode="&#x0425;" d="M1069 1572L1090 1572Q366 853 354 714Q354 531 517-104L477-104Q354 335 293 673L272 673Q-96 146-96 60L-157 60Q-157 162 293 775L293 795Q252 1231 170 1408L211 1429Q293 1297 334 857L354 857Q835 1407 1069 1572Z"  horiz-adv-x="783" vert-adv-y="2048"  />

      
      <glyph glyph-name="uni0426" unicode="&#x0426;" d="M96 1395L116 1395L116 1375L-103 679Q-143 607-163 322Q-163 43-43 43Q374 448 374 660Q374 911 672 1256Q693 1256 732 1276Q811 1256 811 1156Q696 911 414 481L414 441Q414 340 453 202L513 202Q545 202 652 381Q672 381 672 401Q739 401 851 123Q1070 282 1348 441L1388 441L1388 421Q791 62 791-135Q586-533 354-533L314-473Q369-319 791 63L791 123Q764 262 712 262L672 262Q552 143 473 143L453 143Q394 143 354 401L334 401Q45 21-24 4L-103 4Q-202 4-202 342Q-202 626 36 1256L16 1256Q-19 1256-282 938L-282 958Q-282 1070 96 1395M692 1156Q512 1035 453 819Q453 789 414 640L434 640Q676 922 732 1137L692 1156M434-453L453-453Q652-354 752-76L732-76Q434-320 434-453Z"  horiz-adv-x="1592" vert-adv-y="2048"  />

      
      <glyph glyph-name="uni0427" unicode="&#x0427;" d="M483 1476L510 1476L510 1369Q209 847 188 617L215 617Q543 694 966 1100Q1001 1243 1181 1449Q1233 1422 1261 1422L1261 1315Q805 796 805 268L805 161Q832 81 966 81L993 81L1181 134L1181 107Q1145 0 939 0Q725 20 725 215Q725 330 859 886L832 886Q663 743 215 510Q134 529 107 617L376 1315Q189 1172 27 1020L0 1020L0 1047Q36 1159 483 1476Z"  horiz-adv-x="1247" vert-adv-y="2048"  />

      
      <glyph glyph-name="uni0428" unicode="&#x0428;" d="M986 1450Q1028 1443 1028 1408Q667 734 667 261L688 154L731 154Q1062 624 1113 1025Q1287 1408 1304 1408Q1345 1386 1368 1386L1368 1323Q1368 1204 1049 515Q1028 431 1028 367Q1043 91 1113 91L1134 91Q1408 431 1432 431L1432 409Q1284 150 1134 27L1113 27Q986 113 986 239L986 452Q770 119 710 91L688 91Q625 103 625 239Q625 351 646 600L646 622L625 622Q376 109 200-58L157-58Q65-58 30 239Q30 394 285 1280L264 1280Q135 1186-13 983Q-55 983-55 1025Q-51 1078 327 1386L349 1344Q94 484 94 282L94 154L136 6L200 6Q643 630 901 1323Q958 1450 986 1450M1262 1238Q1113 874 1113 834L1113 813L1134 813Q1304 1148 1304 1238L1262 1238Z"  horiz-adv-x="1502" vert-adv-y="2048"  />

      
      <glyph glyph-name="uni0429" unicode="&#x0429;" d="M587 1456L610 1456Q610 1406 249 710Q113 359 113 123Q160 33 226 33Q720 302 1062 1162Q1153 1320 1175 1320L1220 1320Q1220 1275 1243 1275Q1070 877 881 597Q791 461 791 213L791 168Q798 123 836 123Q1062 328 1175 688Q1361 976 1491 1072L1514 1072Q1559 1065 1559 1027Q1559 903 1130 371L1130 281Q1181 168 1356 168L1559 168Q1627 168 1627-13L2259 213L2259 168Q1559-19 1559-352Q1332-781 1017-781Q1017-826 859-826L836-781Q1188-303 1582-58L1582-13Q1582 69 1514 123L1469 100Q1156 100 1039 281Q1039 251 813 55Q723 78 723 168Q723 259 768 462Q343-13 203-13L158-13Q68 24 68 146L68 191Q68 492 474 1253L452 1253Q274 1126 23 846L0 846L0 891Q0 911 587 1456M1107 1140Q1107 1085 1017 959L1017 936Q1057 936 1130 1117L1130 1140L1107 1140M1175 530Q1469 836 1469 959Q1184 697 1175 530M972-758Q1536-568 1536-193L1536-171Q972-560 972-758Z"  horiz-adv-x="2221" vert-adv-y="2048"  />

      
      <glyph glyph-name="uni042A" unicode="&#x042A;" d="M3 1057Q534 977 534 713Q550 713 550 651L550 604L722 604Q824 604 863 541Q863 447 503 400Q422 103 284 103Q182 103 175-37L143-53Q112-6 112 72L-76 72L-154-6Q-185-6-185 25L-185 135Q-482 238-482 447L-482 463Q-482 946-29 1057L3 1057M-435 510Q-435 218-13 119L96 119Q399 119 456 385L456 416Q318 400 284 400Q143 410 143 447L143 479Q143 564 472 572Q472 588 503 588Q503 1010-13 1010Q-344 1010-435 510M112 791L128 791Q143 791 175 729Q143 665 143 635L112 635Q81 635 81 666L81 760Q86 791 112 791M331 760L393 760Q393 743 409 713Q384 637 347 604Q316 619 300 619L300 729Q305 760 331 760M222 463L222 447L378 447Q605 447 800 510L800 541L691 572Q222 514 222 463M-294 494L-216 494Q-216 445-138 400L-91 432L-44 432L-44 416Q-74 359-138 338Q-292 456-294 479L-294 494Z"  horiz-adv-x="1244" vert-adv-y="2048"  />

      
      <glyph glyph-name="uni042B" unicode="&#x042B;" d="M623 1641L644 1641L644 1620Q644 1557 415 1226Q395 1189 395 1142L395 1080Q395 936 685 872L706 872L706 852Q706 827 540 769L540 561Q540 322 83 42L21 42L0 83Q258 83 478 519L478 561L457 748Q499 833 499 872Q332 952 332 1080L332 1101Q332 1261 561 1537L561 1579L540 1579Q472 1537 415 1537L415 1558Q415 1615 623 1641M1475 1267L1496 1267L1558 1226Q1922 1246 1994 1246L1994 1205Q1475 1205 1475 997Q1433 748 1433 623L1537 623Q1607 623 1641 644Q1714 623 1849 623Q1849 582 1807 582L1599 582Q1392 582 1392 208L1392 166Q1396 83 1433 83Q1733 145 1807 145L1911 145Q1911 109 1433 21Q1433 0 1413 0Q1372 21 1350 21Q1350 106 1329 187L1413 997L1392 1142Q1475 1184 1475 1267M1080 1142Q1120 1122 1142 1122L1142 1080Q1142 976 1059 956Q976 976 976 1059Q997 1142 1080 1142M956 499L997 499Q1039 492 1039 457L1039 436Q1039 325 956 291L935 291Q905 291 872 353Q872 465 956 499Z"  horiz-adv-x="1980" vert-adv-y="2048"  />

      
      <glyph glyph-name="uni042C" unicode="&#x042C;" d="M279 742Q556 710 556 520Q474 152 298 152L243 152Q3 175 3 336L3 428Q40 742 279 742M114 502L114 447Q119 410 150 410Q310 464 390 649L316 649Q198 649 114 502M2362 613L2436 613Q2662 613 2694 318Q2585 60 2418 60L2381 60Q2227 60 2141 189L2141 281Q2141 613 2362 613M2381 576Q2340 465 2252 465Q2215 405 2215 355L2215 336L2252 336Q2368 336 2491 484L2491 557Q2477 557 2381 576M611 78Q635-69 851-69Q851-106 1017-106Q1325-10 1422 60L1441 60Q1634-14 1754-14Q1918-14 1994 41L2030 41L2030 4Q2030-31 1828-125L1809-125Q1584-125 1404-69Q1230-180 1017-180L961-180Q659-180 574-33L574 41Q580 78 611 78Z"  horiz-adv-x="2731" vert-adv-y="2048"  />

      
      <glyph glyph-name="uni042D" unicode="&#x042D;" d="M755 1461L852 1461Q1412 1461 1412 950L1583 950L1583 925Q1362 925 1315 560Q1084 214 365 49Q136 0 0 0L0 73Q1339 215 1339 877Q355 682 170 536Q130 560 49 560L49 584Q73 651 1364 950Q1364 1412 779 1412Q415 1412 24 1242L24 1266Q294 1461 755 1461Z"  horiz-adv-x="1479" vert-adv-y="2048"  />

      
      <glyph glyph-name="uni042E" unicode="&#x042E;" d="M584 1479Q603 1441 603 1421Q370 1004 370 525Q472 569 603 895Q1029 1272 1168 1421L1187 1421Q1225 1383 1401 1323Q1498 1215 1498 1090L1498 992Q1498 684 992 97Q861 0 798 0L701 0Q600 0 545 311Q545 493 662 720L642 720Q366 502 195 97Q94 0 19 0L0 39Q0 113 311 467Q311 693 428 1168Q133 895 39 895Q506 1272 506 1382Q563 1479 584 1479M603 350L603 272Q603 39 778 39Q1074 131 1401 759Q1460 944 1460 992Q1460 1284 1284 1284L1226 1284Q603 806 603 350M584 778L584 759L603 759Q778 898 837 1031L817 1031Q584 825 584 778M175 214L175 195Q214 195 214 234L214 253Q175 247 175 214Z"  horiz-adv-x="1511" vert-adv-y="2048"  />

      
      <glyph glyph-name="uni042F" unicode="&#x042F;" d="M971 1473Q1062 1454 1140 1282L1140 1261Q992 1100 907 182Q886-136 823-136L823-115Q886 283 950 944Q298 264 18 118L-3 160Q254 306 759 817L738 817Q549 711 399 711Q258 711 209 859Q209 1099 886 1452Q897 1452 971 1473M272 838Q307 753 420 753L442 753Q1013 923 1013 1240Q1056 1240 1056 1282L1056 1325Q1056 1378 971 1388Q637 1388 272 901L272 838Z"  horiz-adv-x="1151" vert-adv-y="2048"  />

      
      <glyph glyph-name="uni0430" unicode="&#x0430;" d="M263 600L374 600Q408 600 462 512L462 380Q374 138 374 115Q416 93 440 93L836 270L836 247Q522 49 418 49Q401 49 285 71Q209-61 65-61Q4 10-23 115Q-23 457 263 600M87 292L87 203Q94 159 131 159L175 159Q285 194 374 424L418 424L418 468Q418 499 352 534Q208 534 87 292M131 115L43 159L43 115L65 5L87 5Q223 5 308 181L285 181Q205 115 131 115Z"  horiz-adv-x="794" vert-adv-y="2048"  />

      
      <glyph glyph-name="uni0431" unicode="&#x0431;" d="M2750 1782L2815 1782L2815 1750Q1755 1671-1074 551L-1074 486Q-863 421-782 421L514 421Q709 401 709 324L709 227Q546 0 222 0Q28 66 28 130L28 227L93 227Q109 97 190 97L287 97Q611 137 611 227Q611 324 255 389Q-612 356-815 356Q-1167 399-1204 551Q-430 907 1519 1556Q2492 1782 2750 1782Z"  horiz-adv-x="829" vert-adv-y="2048"  />

      
      <glyph glyph-name="uni0432" unicode="&#x0432;" d="M1197 1803L1278 1803L1278 1776Q1225 1496 497 646Q497 617 470 565L497 565Q595 619 739 619Q955 507 955 377Q955 75 632 0Q390 36 390 323L390 377L363 377Q311 350 282 350Q282 375 390 511L390 538L363 538Q2 161-41 161L-41 215L282 538Q453 675 686 1211Q1051 1666 1197 1803M605 888Q1027 1299 1197 1668L1143 1668Q679 1167 605 888M443 431Q462 54 578 54L605 54Q813 54 874 377L874 404Q805 538 659 538L632 538Q487 538 443 431Z"  horiz-adv-x="1074" vert-adv-y="2048"  />

      
      <glyph glyph-name="uni0433" unicode="&#x0433;" d="M255 612Q357 587 357 459L179 51Q824 255 918 255L1020 255L1020 230Q912 230 179 0L128 0Q77 0 77 51Q281 359 281 459L281 536L255 536Q162 536 26 434L0 434Q0 517 255 612Z"  horiz-adv-x="945" vert-adv-y="2048"  />

      
      <glyph glyph-name="uni0434" unicode="&#x0434;" d="M184 597L213 597Q259 597 328 396Q328 349 126 51Q98 3 98-93L98-208Q311-151 385-151Q385-201 69-294Q-443-1186-679-1186Q-720-1186-765-1100L-765-1042Q-765-700 11-208L40-7L-46-7Q-190-7-219 108Q-68 597 184 597M126 482L98 338L98 194L126 194Q159 194 270 367Q241 417 241 482L126 482M-17 424Q-132 203-132 137L-132 108Q-123 51-75 51L-46 51Q-5 51 40 137L40 424L-17 424M-650-1071Q-621-1071-621-1100Q-403-989-75-410L-75-381L-132-381Q-650-687-650-1071Z"  horiz-adv-x="581" vert-adv-y="2048"  />

      
      <glyph glyph-name="uni0435" unicode="&#x0435;" d="M428 594Q523 570 523 499Q312 143 95 143Q428 394 428 428Q451 474 451 499L404 499Q166 499 48 166Q108 24 214 24L808 166L808 119Q341 0 238 0L119 0Q0 61 0 190Q0 365 404 594L428 594Z"  horiz-adv-x="786" vert-adv-y="2048"  />

      
      <glyph glyph-name="uni0436" unicode="&#x0436;" d="M824 606L873 606L897 485L848 267L824 267Q776 267 776 412Q692 412 654 145Q679 98 679 73L703 73Q836 73 1503 436L1503 388Q845 24 703 24Q606 48 606 170L606 218L630 339L339 73L291 73L291 121Q364 224 364 315Q338 314 97 0L73 0L73 24Q218 422 218 485L194 485L24 339L0 339Q156 582 291 582L291 533Q291 461 218 242L436 461L461 461Q436 285 412 242L436 242L824 606Z"  horiz-adv-x="1412" vert-adv-y="2048"  />

      
      <glyph glyph-name="uni0437" unicode="&#x0437;" d="M220 476L270 476Q320 468 320 426L320 301Q195 172 195 51Q312 51 345-299Q631-46 845 101L845 51Q270-319 270-749Q-205-2275-580-2275L-680-2275Q-830-2190-830-2075Q-830-1605 170-474Q295-411 295-249Q261 26 70 26L70 51Q270 294 270 401Q222 426 195 426Q-105 283-105 76L-130 76Q-130 151-155 151Q17 476 220 476M-730-2000L-730-2100Q-680-2200-580-2200Q-174-2200 245-524L245-499Q-635-1363-730-2000Z"  horiz-adv-x="933" vert-adv-y="2048"  />

      
      <glyph glyph-name="uni0438" unicode="&#x0438;" d="M341 606L341 530Q76 213 76 76L114 76Q246 76 644 455Q644 417 682 417L568 227L568 114L606 114Q687 114 1098 227Q1098 114 530 0Q455 92 455 152L417 152L189 0L76 0Q0 0 0 76Q194 606 341 606Z"  horiz-adv-x="1076" vert-adv-y="2048"  />

      
      <glyph glyph-name="uni0439" unicode="&#x0439;" d="M1231 1343Q1231 1312 357 735Q357 680 243 621L243 735Q446 963 1231 1343M243 583L281 507L281 469Q53 198 53 51L53 13L91 13Q230 13 471 393L585 393L547 203L547 165L699 165L699 89L623 89L357 127Q224-101 15-101L-23-101Q-23 13-61 13Q143 583 243 583Z"  horiz-adv-x="739" vert-adv-y="2048"  />

      
      <glyph glyph-name="uni043A" unicode="&#x043A;" d="M159 596L209 596L209 571Q209 485 135 299L184 274L234 274L531 571L556 571L556 546Q258 224 258 200Q283 125 407 125L729 125L729 76L531 76Q506 76 506 51L184 125Q56-48 11-48L-14 2L159 596M110 249L85 125L159 175Q135 223 135 249L110 249Z"  horiz-adv-x="661" vert-adv-y="2048"  />

      
      <glyph glyph-name="uni043B" unicode="&#x043B;" d="M471 623L531 623L531 593Q531 482 322 206L322 57L382 57Q440 57 1067 355Q602-3 352-3L322-3L203 87Q203 43-6-122L-95-122L-95-92L-65 57L84 57Q187 78 382 563L471 623Z"  horiz-adv-x="922" vert-adv-y="2048"  />

      
      <glyph glyph-name="uni043C" unicode="&#x043C;" d="M566 620L593 620L593 566Q593 505 404 162L404 135L458 108L809 620L836 620Q836 556 674 270L674 162Q674 108 755 108L1024 270L1024 243Q879 54 728 54L701 54Q628 54 620 189L593 189Q457 27 431 27Q358 27 350 162L323 162L108 0L0 0L0 54Q17 216 81 216Q108 171 108 81L135 81Q350 178 512 593L566 620Z"  horiz-adv-x="1021" vert-adv-y="2048"  />

      
      <glyph glyph-name="uni043D" unicode="&#x043D;" d="M679 583Q497 280 497 193L497 167Q505 115 549 115Q596 115 887 245Q887 167 549 63Q445 102 445 141L445 219Q445 290 497 375L471 375Q471 342 263 167Q218 193 159 193Q67-67 3-67Q3-41-23-41Q245 583 315 583L315 557Q263 318 263 271Q599 609 679 609L679 583Z"  horiz-adv-x="774" vert-adv-y="2048"  />

      
      <glyph glyph-name="uni043E" unicode="&#x043E;" d="M495 594L520 594Q619 545 619 446Q502 212 173 0L50 0Q0 154 0 248Q218 594 495 594M99 124L99 99L124 50Q291 105 545 396L545 495L446 520Q99 359 99 124Z"  horiz-adv-x="562" vert-adv-y="2048"  />

      
      <glyph glyph-name="uni043F" unicode="&#x043F;" d="M281 551L313 551L313 457L156 176L156 145L188 145L531 426L594 426L594 395L563 176Q639 113 688 113Q1068 238 1125 238Q957 51 563 51Q500 145 469 270Q340 191 63-43L0-12Q208 505 281 551Z"  horiz-adv-x="948" vert-adv-y="2048"  />

      
      <glyph glyph-name="uni0440" unicode="&#x0440;" d="M448 859Q630 859 672 610Q672 331 100-36L100-12Q647 405 647 635Q647 777 349 809Q-596 573-596 212L-621 212Q-671 212-671 262L-671 337Q-266 732 175 809Q272 859 448 859M50 486L100 461Q1-53-99-1479L-124-1479L-124-1404Q-49 102 50 486Z"  horiz-adv-x="680" vert-adv-y="2048"  />

      
      <glyph glyph-name="uni0441" unicode="&#x0441;" d="M421 589L449 589Q489 589 533 505L533 477L421 477Q56 410 56 140L140 84L701 84Q701 19 224 0Q78 0 0 140L0 196Q157 589 421 589Z"  horiz-adv-x="635" vert-adv-y="2048"  />

      
      <glyph glyph-name="uni0442" unicode="&#x0442;" d="M1644 1163L1669 1163L1669 1138Q915 1058-435 403L-435 352Q-68 403 224 403Q291 528 326 529L351 529L351 504L326 377Q453 342 453 200Q453 98 301-3Q224 84 199 225Q224 274 224 301L148 352L123 352Q-99 352-587 276L-612 327Q-183 666 1213 1112Q1554 1163 1644 1163M275 301L275 149Q283 98 326 98L377 200Q339 301 301 301L275 301Z"  horiz-adv-x="429" vert-adv-y="2048"  />

      
      <glyph glyph-name="uni0443" unicode="&#x0443;" d="M97 588L205 588L205 552Q97 374 97 266L97 159L133 159L526 517L562 517Q562 424 383-198L455-198Q646-55 776-55L776-127Q276-290 276-627Q12-1806-403-1806L-439-1806Q-439-1743-510-1627Q-510-1250 276-305Q419 233 419 302L97 16Q16 16-10 195Q-10 286 97 588M-331-1413L-331-1663L-296-1663Q26-1471 205-591L205-555L169-555Q-319-1104-331-1413Z"  horiz-adv-x="757" vert-adv-y="2048"  />

      
      <glyph glyph-name="uni0444" unicode="&#x0444;" d="M610 548Q680 407 868 407Q985 390 985 337L985 266Q960 156 469 32Q391 32 235-672L235-719L164-719Q258-274 375 8L188 8Q0 8 0 173Q0 332 563 478Q563 548 610 548M657 360Q657 322 516 243Q516 203 469 102L516 102Q714 102 915 266Q915 360 657 360M70 196L70 126Q70 92 141 55L282 55Q493 55 493 360L469 360Q239 360 70 196Z"  horiz-adv-x="995" vert-adv-y="2048"  />

      
      <glyph glyph-name="uni0445" unicode="&#x0445;" d="M252 599Q284 552 284 410Q340 410 568 504L568 441Q469 441 316 284L347 220L347-32L284-32L284 157L252 220Q191 220 0-32L0 31Q0 78 221 347L189 567L252 599Z"  horiz-adv-x="531" vert-adv-y="2048"  />

      
      <glyph glyph-name="uni0446" unicode="&#x0446;" d="M277 559L301 512Q88 373 65 205L65 87L136 87Q200 88 443 441Q490 434 490 394Q490 297 325 134L325 87Q367 87 537-8L868 134L891 87Q636 87 584-197Q325-409 136-480L112-433L112-386Q378-80 466-79L466-55Q466-27 230 87Q153 40 88 40L65 40Q31 40-6 110Q-6 370 277 559M230-338L230-362L254-362Q378-309 561-126L561-102Q424-102 230-338Z"  horiz-adv-x="815" vert-adv-y="2048"  />

      
      <glyph glyph-name="uni0447" unicode="&#x0447;" d="M429 606L455 606L455 581Q379 488 379 404L404 404Q512 475 631 581L682 581L682 556L455 278Q404 174 404 126Q429 77 429 51Q476 51 960 278L960 227Q518 0 404 0L354 76L354 152Q354 227 429 354Q328 354 328 404L278 404Q51 253 0 253L0 278Q333 510 429 606Z"  horiz-adv-x="951" vert-adv-y="2048"  />

      
      <glyph glyph-name="uni0448" unicode="&#x0448;" d="M281 606L346 606L346 541Q212 541 65 130L65 65Q261 65 541 563Q552 563 628 584L649 541Q390 216 390 130L390 108L411 108Q517 152 736 541L779 563L844 519Q606 177 606 130L606 108L628 108Q954 281 1061 281Q1061 233 606 65L584 65Q541 65 541 130L368 22Q325 93 325 152Q131 0 43 0L0 108Q0 250 281 606Z"  horiz-adv-x="945" vert-adv-y="2048"  />

      
      <glyph glyph-name="uni0449" unicode="&#x0449;" d="M558 617L582 617L630 593L365 208L365 184L389 184Q446 186 750 593Q822 569 822 545Q630 306 630 280L678-33L654-153L702-153Q1520 352 1713 352Q1713 312 1087 39Q509-312 509-586Q341-827 124-827Q90-827 52-755Q52-594 558-249Q606-172 630 15Q630 82 558 232Q387 112 341 112Q341 146 269 184Q162 15 28 15L4 15L-20 136Q120 459 197 521L221 521L221 449Q52 212 52 112L52 88L76 88Q271 182 485 569L558 617M148-731L269-731Q431-662 509-418Q534-371 534-346Q402-346 148-731Z"  horiz-adv-x="1638" vert-adv-y="2048"  />

      
      <glyph glyph-name="uni044A" unicode="&#x044A;" d="M380 591L401 591L401 549L380 507L401 507Q438 528 485 528Q338 321 338 232Q407 274 464 274L485 274Q516 274 549 211Q420 0 274 0Q274 30 211 63Q211 21 169 21L148 63L148 106Q317 228 317 401Q253 401 253 443Q68 317 0 317L0 338L380 591M274 106L274 63L338 63Q464 137 464 169L464 190L443 190Q274 152 274 106Z"  horiz-adv-x="571" vert-adv-y="2048"  />

      
      <glyph glyph-name="uni044B" unicode="&#x044B;" d="M266 559L313 559Q189 403 101 253Q313 253 313 159L313 136Q384 136 595 465L689 535L736 535L736 465L524 206L524 159Q532 112 571 112Q771 206 830 206L854 206Q705 65 524 65L430 136Q96-76 7-76L-40-5Q-40 217 266 559M78 112L78 89Q125 89 125 65Q242 95 242 136L242 183L219 183Q78 159 78 112M7 42Q7-5 78-5L101-5L101 18L7 42Z"  horiz-adv-x="809" vert-adv-y="2048"  />

      
      <glyph glyph-name="uni044C" unicode="&#x044C;" d="M375 609L398 609L398 562L258 398L258 351L305 375Q422 345 422 305L422 258Q422 70 141 0L117 0Q46 117 0 117L0 187Q46 253 375 609M117 117L117 94Q124 47 164 47Q268 47 375 234L305 281Q117 281 117 117Z"  horiz-adv-x="452" vert-adv-y="2048"  />

      
      <glyph glyph-name="uni044D" unicode="&#x044D;" d="M404 606L429 606Q479 606 530 455L581 480L758 480L758 455Q518 455 253 177L278 126Q166 0 76 0L76 51L354 354L303 354Q152 298 152 202L126 202L0 227L0 278Q0 333 455 455L455 480Q455 518 354 556Q261 505 152 505Q152 575 404 606Z"  horiz-adv-x="751" vert-adv-y="2048"  />

      
      <glyph glyph-name="uni044E" unicode="&#x044E;" d="M833 606Q934 494 934 480L934 429Q871 112 555 50L530 50Q353 50 353 227Q72 72 25 0L0 0L0 76Q0 177 303 530L328 530Q328 481 202 252L202 202Q256 202 581 530Q779 606 833 606M429 151L505 101Q753 101 884 404Q846 505 808 505L732 505Q538 505 429 151Z"  horiz-adv-x="948" vert-adv-y="2048"  />

      
      <glyph glyph-name="uni044F" unicode="&#x044F;" d="M533 650Q605 650 605 554L413-71L413-191Q365-191 365-143L365-95Q365 27 437 290Q19 1 4 1L-68 1L-68 49Q201 135 485 434L437 410L413 410Q365 410 365 458L365 482Q365 650 533 650M437 554L437 482Q555 545 557 578L509 578Q462 554 437 554Z"  horiz-adv-x="565" vert-adv-y="2048"  />

      
      <glyph glyph-name="uni0451" unicode="&#x0451;" d="M568 977L591 977Q636 970 636 932L636 909L568 909L568 977M295 932L341 932Q273 856 273 795L204 795L182 909L295 932M523 591Q568 535 568 500Q481 341 136 114L114 68Q275 45 295 45Q373 45 682 159L682 114Q437 23 273 0Q0 0 0 182Q0 423 500 591L523 591M45 136L68 136Q500 403 500 500L409 500Q45 397 45 136Z"  horiz-adv-x="696" vert-adv-y="2048"  />

      
      <glyph glyph-name="uni2014" unicode="&#x2014;" d="M1554 455Q1837 455 1948 282L1948 232Q1772 406 1498 406L120 331L92 381L120 431L261 406L317 406Q555 406 1554 455Z"  horiz-adv-x="2048" vert-adv-y="2048"  />

      
      <glyph glyph-name="uni2018" unicode="&#x2018;" d="M156 1698L193 1698L193 1420L175 1420L156 1513L156 1698Z"  horiz-adv-x="328" vert-adv-y="2048"  />

      
      <glyph glyph-name="uni2019" unicode="&#x2019;" d="M247 1480L220 1342L192 1342L192 1757L247 1757L247 1480Z"  horiz-adv-x="365" vert-adv-y="2048"  />

      
      <glyph glyph-name="uni201A" unicode="&#x201A;" d="M225 54L247 54L247 32Q145-214 113-214L113-169Q113-58 225 54Z"  horiz-adv-x="362" vert-adv-y="2048"  />

      
      <glyph glyph-name="uni201C" unicode="&#x201C;" d="M132 1713L165 1713Q165 1681 181 1681L165 1648L165 1567Q229 1600 229 1664L278 1664Q262 1579 262 1567L278 1470L246 1454Q229 1481 229 1535L197 1535Q197 1470 148 1470Q116 1470 116 1502Q132 1640 132 1713Z"  horiz-adv-x="418" vert-adv-y="2048"  />

      
      <glyph glyph-name="uni201D" unicode="&#x201D;" d="M268 1697Q268 1624 284 1485Q284 1452 252 1452Q203 1452 203 1518L170 1518Q170 1463 154 1436L121 1452L137 1550Q137 1562 121 1648L170 1648Q170 1583 235 1550L235 1632L219 1664Q235 1664 235 1697L268 1697Z"  horiz-adv-x="397" vert-adv-y="2048"  />

      
      <glyph glyph-name="uni201E" unicode="&#x201E;" d="M145 0L173 0Q173-28 187-28L173-56L173-125Q229-98 229-42L270-42Q256-115 256-125L270-209L243-223Q229-200 229-153L201-153Q201-209 159-209Q131-209 131-181Q145-63 145 0Z"  horiz-adv-x="386" vert-adv-y="2048"  />

      
      <glyph glyph-name="uni2020" unicode="&#x2020;" d="M335 1096Q362 1092 362 1069L282 747Q553 814 657 814L711 814Q711 788 456 761Q255 735 255 613Q188 213 188-3L175-3L148 10Q148 48 228 694L-13 627L-67 627Q-86 627-107 667Q255 697 255 788Q295 898 335 1096M523-70L537-70Q1100-308 1100-352Q754-513 684-513L697-580Q657-540 604-540L617-513Q617-496 429-392L416-392L376-419L362-419L362-365Q70-224 67-205L67-178Q496-97 523-70M121-218Q171-218 403-352L523-325Q523-245 483-124Q121-184 121-218M523-124Q541-325 590-325Q813-402 818-446Q1019-355 1019-325Q615-124 523-124M456-365L456-379Q500-379 644-500Q709-459 791-459Q791-422 563-352Q511-365 456-365Z"  horiz-adv-x="867" vert-adv-y="2048"  />

      
      <glyph glyph-name="uni2021" unicode="&#x2021;" d="M374 1256L390 1256L424 1239Q374 1054 374 952Q439 986 559 986L644 986Q745 976 745 935L627 952Q323 952 323 800Q323 729 289 632Q458 648 542 648L694 648Q728 643 728 615L593 615L509 598L509 615Q255 615 255 480Q222 269 222 125L222 41L255 41L255-10L222-10Q171 7 171 91Q171 298 238 581L222 581Q-65 531-65 429L-99 429Q-133 429-133 463L-133 513Q70 598 255 632Q255 674 306 902Q111 851-82 784Q-116 784-116 817Q-116 842 323 952L374 1256M762 41L779 41Q804 41 829-27Q829-45 812-78L829-179L829-213Q829-274 762-348Q762-375 1015-483Q1015-517 1032-517Q1032-603 593-736Q558-736 525-652Q226-546 154-500Q83-361-82-196L-82-162Q142-61 390-61Q406-61 492-128Q695 41 762 41M661-44L661-94L711-94Q711-61 779-61L779-10L728-10Q687-44 661-44M2-196L2-213Q190-483 222-483Q222-510 525-601Q610-601 610-685Q791-652 981-517Q605-343 559-297L542-297L525-381L542-415L492-449Q306-431 306-314Q306-288 374-246Q386-246 509-314Q509-288 542-246L542-229Q517-229 407-111Q154-111 2-196M542-179L593-213L627-196L610-162L610-145L627-111L610-111Q584-111 542-179M610-246Q610-271 661-297Q666-263 694-263L711-263L762-297L779-263L779-229L661-246L661-229Q628-246 610-246M357-314L357-348Q362-381 390-381L424-381Q458-381 458-348L407-314L357-314Z"  horiz-adv-x="913" vert-adv-y="2048"  />

      
      <glyph glyph-name="uni2022" unicode="&#x2022;" d="M522 490Q681 415 681 363Q610 188 427 188Q284 221 284 299Q284 490 522 490Z"  horiz-adv-x="1024" vert-adv-y="2048"  />

      
      <glyph glyph-name="uni2026" unicode="&#x2026;" d="M137 58Q191 38 191 17Q191 7 150-23Q96-3 96 17Q96 28 137 58M299 48L394 48L394-6L313-33L299-6L299 48M491 43L518 43Q545 39 545 16L545-11Q545-38 518-38Q491-38 491-11L491 43Z"  horiz-adv-x="652" vert-adv-y="2048"  />

      
      <glyph glyph-name="uni20AC" unicode="&#x20AC;" d="M989 1003L1024 1003Q1067 968 1094 968L1094 915Q1037 950 989 950L971 950Q856 941 426 598Q666 651 866 651L918 651Q918 612 496 581Q212 498 162 387L179 387Q791 475 971 475Q971 440 461 387Q415 342 91 282L74 158Q74 66 250 53Q765 88 883 123L883 106Q1000 141 1218 158L1218 141Q1218 87 531 35L285 0Q21 39 21 176Q28 314 197 493L197 510Q39 440-49 440L-67 475L-67 493Q-62 528-32 528L3 528Q21 528 21 510L56 528Q74 528 74 510Q282 542 514 721Q880 1003 989 1003Z"  horiz-adv-x="1197" vert-adv-y="2048"  />

      
      <glyph glyph-name="uni2116" unicode="&#x2116;" d="M1591 1090L1679 1090Q1709 1090 1809 959L1809 916Q1742 654 1461 654L1417 654Q1300 654 1264 741L1264 807Q1264 1032 1591 1090M1221 1046Q971 753 480 65L436 44Q392 109 392 196Q392 344 589 763L567 763Q290 421 65 109L65 0L22 0L0 109Q387 627 610 872L610 894L676 894L676 872Q458 364 458 196L458 131L480 131Q546 285 1134 1003Q1134 1046 1221 1046M1482 1025L1482 1003Q1548 1003 1548 959L1548 937L1461 937Q1308 937 1308 785L1308 763Q1330 698 1439 698Q1606 698 1744 850L1744 872Q1744 1031 1548 1046Q1506 1025 1482 1025M1090 610Q1112 568 1112 545L1155 545Q1474 589 1504 589L1657 589Q1700 582 1700 545Q1679 545 1679 523L1635 545L1591 545Q1105 480 1068 480L1003 567L1003 589Q1014 589 1090 610Z"  horiz-adv-x="1951" vert-adv-y="2048"  />

      
      <glyph glyph-name="uni2122" unicode="&#x2122;" d="M597 1690L611 1663Q396 1612 185 1415Q185 1388 254 1388Q254 1429 281 1429L295 1429Q295 1328 377 1236L364 1209Q338 1209 254 1333Q148 1388 116 1388L75 1388L75 1429Q132 1429 419 1621Q533 1672 597 1690M611 1566Q638 1482 638 1456L762 1566L776 1566L776 1553L735 1360L748 1278L748 1264L735 1264Q707 1264 707 1291L707 1333L721 1470Q652 1415 611 1415Q597 1439 597 1470Q570 1470 515 1305L501 1305L501 1333Q570 1557 611 1566Z"  horiz-adv-x="852" vert-adv-y="2048"  />

      
      <glyph glyph-name="uni2206" unicode="&#x2206;" d="M301 786Q395 767 476 586L526 611L601 611L601 586Q526 586 526 535Q626 110 752-166L701-191Q504-33 0 60L0 85L451 561Q426 561 276 761Q301 761 301 786M451 485Q165 160 125 160L125 110L601-41L601-16Q510 485 451 485Z"  horiz-adv-x="736" vert-adv-y="2048"  />

      
      <glyph glyph-name="uni2211" unicode="&#x2211;" d="M1433 1566L1460 1513L265 1194L265 1141Q283 1080 1088 849L1115 717L1115 690Q1001 669 106 80Q133 80 133 53L1035 159Q1168 125 1168 80L1035 80Q870 80 53 0L0 0L0 133Q146 133 1035 770Q1035 841 239 1035L186 1115L186 1194Q186 1255 1088 1460Q1109 1525 1433 1566Z"  horiz-adv-x="1206" vert-adv-y="2048"  />

      
      <glyph glyph-name="uni2212" unicode="&#x2212;" d="M861 401Q861 366 292 281Q267 294 236 294L150 294L136 321L164 334Q290 321 321 321Q830 401 861 401Z"  horiz-adv-x="1014" vert-adv-y="2048"  />

      
      <glyph glyph-name="uni221A" unicode="&#x221A;" d="M1690 1400L1770 1384L1770 1368Q866 1368 80 1094L48 1046Q48 1007 225 708Q338 515 418 0L386 0Q291 0 161 515L161 547L129 547L48 531L48 563Q53 595 80 595L145 595Q200 595 290 193Q322 193 322 129L338 129L338 145Q338 544 16 998L0 1094Q802 1400 1690 1400Z"  horiz-adv-x="481" vert-adv-y="2048"  />

      
      <glyph glyph-name="uni221E" unicode="&#x221E;" d="M1376 549Q1407 549 1455 469L1455 410Q1409 242 563 192L464 212Q400 172 365 172Q270 172 28 271Q28 390 167 390Q271 390 484 291Q1048 549 1376 549M583 251L662 251Q1396 251 1396 469L1396 489Q1378 489 1237 509Q682 382 682 311Q583 296 583 251M107 331L107 271Q236 231 286 231L365 231Q405 231 405 271Q355 311 187 350Q152 331 107 331Z"  horiz-adv-x="1505" vert-adv-y="2048"  />

      
      <glyph glyph-name="uni222B" unicode="&#x222B;" d="M739 1676L783 1676Q862 1676 934 1373Q906 1265 869 1265L847 1308L847 1330Q847 1379 869 1416Q847 1589 761 1589Q520 1589 220 703Q91 95 91-357Q69-357 69-378L91-378Q74-415 47-638L4-638Q-81-638-212-162L-169-141Q-18-484-18-530Q26-530 26-465Q26 527 372 1243Q556 1549 739 1676Z"  horiz-adv-x="336" vert-adv-y="2048"  />

      
      <glyph glyph-name="uni2248" unicode="&#x2248;" d="M221 496Q262 492 331 362Q343 362 367 350Q428 350 610 484L635 484L635 460Q437 326 391 326L343 326Q327 326 233 447L209 447L172 423L160 423L160 435Q160 447 221 496M185 314Q215 314 294 192L331 168L343 168Q408 168 635 289Q648 289 671 301L671 289Q671 265 367 131Q221 169 221 265L197 265L160 241L148 241L148 277Q148 287 185 314Z"  horiz-adv-x="786" vert-adv-y="2048"  />

      
      <glyph glyph-name="uni2264" unicode="&#x2264;" d="M607 508Q638 503 638 477Q581 474 302 325L302 294Q496 294 683 203L683 157L668 157Q563 233 470 233L439 233Q309 233 241 203Q211 218 195 218L195 233Q195 264 271 264L271 279L210 279L210 325Q256 325 577 508L607 508Z"  horiz-adv-x="850" vert-adv-y="2048"  />

      
      <glyph glyph-name="uni2265" unicode="&#x2265;" d="M269 531L646 445L646 428Q628 366 440 291L440 274L526 309L543 274L543 257Q440 257 98 69L98 103Q98 137 372 240L372 257L355 257L166 172L149 172Q115 172 115 206Q390 298 577 411L577 428L269 463L269 531Z"  horiz-adv-x="794" vert-adv-y="2048"  />

      

  </font>
</defs>
</svg>
